M48
;DRILL file {KiCad 4.0.6} date 07/14/17 02:25:38
;FORMAT={-:-/ absolute / metric / decimal}
FMAT,2
METRIC,TZ
T1C0.800
T2C1.000
T3C1.435
%
G90
G05
M71
T1
X162.56Y-73.406
X162.56Y-75.906
X170.815Y-73.406
X170.815Y-75.906
T2
X118.364Y-62.611
X118.364Y-65.151
X118.364Y-67.691
X118.364Y-70.231
X118.364Y-72.771
X118.364Y-75.311
X118.364Y-77.851
X118.364Y-80.391
X118.364Y-82.931
X118.364Y-85.471
X120.904Y-62.611
X120.904Y-65.151
X120.904Y-67.691
X120.904Y-70.231
X120.904Y-72.771
X120.904Y-75.311
X120.904Y-77.851
X120.904Y-80.391
X120.904Y-82.931
X120.904Y-85.471
X120.904Y-89.154
X131.064Y-114.998
X131.417Y-83.32
X131.417Y-93.12
X131.417Y-104.42
X131.617Y-39.82
X131.617Y-50.72
X131.617Y-62.62
X131.617Y-72.42
X138.267Y-49.575
X138.267Y-60.37
X138.267Y-71.165
X138.267Y-92.755
X138.267Y-103.315
X138.267Y-113.875
X138.303Y-38.735
X138.317Y-82.12
X140.807Y-49.575
X140.807Y-60.37
X140.807Y-71.165
X140.807Y-92.755
X140.807Y-103.315
X140.807Y-113.875
X140.843Y-36.83
X140.843Y-38.735
X140.843Y-47.879
X140.843Y-58.42
X140.843Y-69.342
X140.843Y-80.137
X140.843Y-90.805
X140.843Y-101.219
X140.843Y-111.887
X140.857Y-82.12
X143.347Y-49.575
X143.347Y-60.37
X143.347Y-71.165
X143.347Y-92.755
X143.347Y-103.315
X143.347Y-113.875
X143.383Y-38.735
X143.397Y-82.12
X156.337Y-29.718
X156.337Y-33.909
X157.099Y-72.771
X157.099Y-75.311
X157.671Y-103.695
X160.02Y-78.359
X160.02Y-81.128
X160.782Y-103.695
X162.395Y-29.654
X162.395Y-33.922
X162.56Y-81.128
X162.585Y-78.372
X162.941Y-116.459
X165.1Y-81.128
X166.751Y-34.925
X167.513Y-116.459
X167.64Y-102.362
X169.672Y-34.925
X170.434Y-78.359
X170.459Y-81.153
X170.586Y-116.51
X170.688Y-70.358
X171.704Y-55.435
X172.974Y-93.091
X172.999Y-81.153
X173.126Y-116.51
X173.431Y-78.422
X173.99Y-67.564
X174.244Y-102.362
X175.057Y-35.052
X175.539Y-81.153
X176.276Y-49.53
X178.943Y-116.395
X180.657Y-35.052
X182.093Y-116.51
X182.372Y-76.2
X182.397Y-81.178
X182.461Y-61.354
X184.493Y-102.235
X184.633Y-116.51
X184.785Y-52.324
X184.912Y-76.2
X184.937Y-81.178
X186.944Y-70.933
X187.071Y-102.235
X187.452Y-76.2
X187.477Y-81.178
X190.945Y-116.459
X191.008Y-35.179
X192.659Y-52.959
X192.659Y-55.499
X192.659Y-58.039
X192.659Y-60.579
X192.659Y-63.119
X192.659Y-65.659
X192.659Y-68.199
X192.659Y-73.533
X192.659Y-76.073
X192.786Y-79.375
X198.628Y-84.709
T3
X120.968Y-93.218
X201.93Y-81.153
T0
M30
