G04 #@! TF.FileFunction,Copper,L2,Bot,Signal*
%FSLAX46Y46*%
G04 Gerber Fmt 4.6, Leading zero omitted, Abs format (unit mm)*
G04 Created by KiCad (PCBNEW 4.0.6) date 07/13/17 01:13:57*
%MOMM*%
%LPD*%
G01*
G04 APERTURE LIST*
%ADD10C,0.100000*%
%ADD11C,0.300000*%
%ADD12C,0.010000*%
%ADD13R,1.700000X1.700000*%
%ADD14O,1.700000X1.700000*%
%ADD15R,1.600000X1.600000*%
%ADD16C,1.600000*%
%ADD17C,2.143000*%
%ADD18C,1.500000*%
%ADD19C,0.508000*%
%ADD20C,0.762000*%
%ADD21C,0.248920*%
%ADD22C,1.016000*%
%ADD23C,0.254000*%
G04 APERTURE END LIST*
D10*
D11*
X200830071Y-27134357D02*
X200330071Y-27134357D01*
X200115785Y-27920071D02*
X200830071Y-27920071D01*
X200830071Y-26420071D01*
X200115785Y-26420071D01*
X199472928Y-27134357D02*
X198972928Y-27134357D01*
X198758642Y-27920071D02*
X199472928Y-27920071D01*
X199472928Y-26420071D01*
X198758642Y-26420071D01*
X197330071Y-26491500D02*
X197472928Y-26420071D01*
X197687214Y-26420071D01*
X197901499Y-26491500D01*
X198044357Y-26634357D01*
X198115785Y-26777214D01*
X198187214Y-27062929D01*
X198187214Y-27277214D01*
X198115785Y-27562929D01*
X198044357Y-27705786D01*
X197901499Y-27848643D01*
X197687214Y-27920071D01*
X197544357Y-27920071D01*
X197330071Y-27848643D01*
X197258642Y-27777214D01*
X197258642Y-27277214D01*
X197544357Y-27277214D01*
X195615785Y-26920071D02*
X195258642Y-27920071D01*
X194901500Y-26920071D01*
X193544357Y-27920071D02*
X194401500Y-27920071D01*
X193972928Y-27920071D02*
X193972928Y-26420071D01*
X194115785Y-26634357D01*
X194258643Y-26777214D01*
X194401500Y-26848643D01*
X192901500Y-27777214D02*
X192830072Y-27848643D01*
X192901500Y-27920071D01*
X192972929Y-27848643D01*
X192901500Y-27777214D01*
X192901500Y-27920071D01*
X191901500Y-26420071D02*
X191758643Y-26420071D01*
X191615786Y-26491500D01*
X191544357Y-26562929D01*
X191472928Y-26705786D01*
X191401500Y-26991500D01*
X191401500Y-27348643D01*
X191472928Y-27634357D01*
X191544357Y-27777214D01*
X191615786Y-27848643D01*
X191758643Y-27920071D01*
X191901500Y-27920071D01*
X192044357Y-27848643D01*
X192115786Y-27777214D01*
X192187214Y-27634357D01*
X192258643Y-27348643D01*
X192258643Y-26991500D01*
X192187214Y-26705786D01*
X192115786Y-26562929D01*
X192044357Y-26491500D01*
X191901500Y-26420071D01*
X200912928Y-31603071D02*
X200912928Y-30103071D01*
X200198642Y-31603071D02*
X200198642Y-30103071D01*
X198984356Y-30817357D02*
X198770070Y-30888786D01*
X198698642Y-30960214D01*
X198627213Y-31103071D01*
X198627213Y-31317357D01*
X198698642Y-31460214D01*
X198770070Y-31531643D01*
X198912928Y-31603071D01*
X199484356Y-31603071D01*
X199484356Y-30103071D01*
X198984356Y-30103071D01*
X198841499Y-30174500D01*
X198770070Y-30245929D01*
X198698642Y-30388786D01*
X198698642Y-30531643D01*
X198770070Y-30674500D01*
X198841499Y-30745929D01*
X198984356Y-30817357D01*
X199484356Y-30817357D01*
X197984356Y-31603071D02*
X197984356Y-30103071D01*
X197484356Y-31174500D01*
X196984356Y-30103071D01*
X196984356Y-31603071D01*
X195127213Y-31031643D02*
X193984356Y-31031643D01*
X191341499Y-30174500D02*
X191484356Y-30103071D01*
X191698642Y-30103071D01*
X191912927Y-30174500D01*
X192055785Y-30317357D01*
X192127213Y-30460214D01*
X192198642Y-30745929D01*
X192198642Y-30960214D01*
X192127213Y-31245929D01*
X192055785Y-31388786D01*
X191912927Y-31531643D01*
X191698642Y-31603071D01*
X191555785Y-31603071D01*
X191341499Y-31531643D01*
X191270070Y-31460214D01*
X191270070Y-30960214D01*
X191555785Y-30960214D01*
X190627213Y-31603071D02*
X190627213Y-30603071D01*
X190627213Y-30888786D02*
X190555785Y-30745929D01*
X190484356Y-30674500D01*
X190341499Y-30603071D01*
X190198642Y-30603071D01*
X189484356Y-31603071D02*
X189627214Y-31531643D01*
X189698642Y-31460214D01*
X189770071Y-31317357D01*
X189770071Y-30888786D01*
X189698642Y-30745929D01*
X189627214Y-30674500D01*
X189484356Y-30603071D01*
X189270071Y-30603071D01*
X189127214Y-30674500D01*
X189055785Y-30745929D01*
X188984356Y-30888786D01*
X188984356Y-31317357D01*
X189055785Y-31460214D01*
X189127214Y-31531643D01*
X189270071Y-31603071D01*
X189484356Y-31603071D01*
X188412928Y-31531643D02*
X188198642Y-31603071D01*
X187841499Y-31603071D01*
X187698642Y-31531643D01*
X187627213Y-31460214D01*
X187555785Y-31317357D01*
X187555785Y-31174500D01*
X187627213Y-31031643D01*
X187698642Y-30960214D01*
X187841499Y-30888786D01*
X188127213Y-30817357D01*
X188270071Y-30745929D01*
X188341499Y-30674500D01*
X188412928Y-30531643D01*
X188412928Y-30388786D01*
X188341499Y-30245929D01*
X188270071Y-30174500D01*
X188127213Y-30103071D01*
X187770071Y-30103071D01*
X187555785Y-30174500D01*
X186270071Y-31603071D02*
X186270071Y-30817357D01*
X186341500Y-30674500D01*
X186484357Y-30603071D01*
X186770071Y-30603071D01*
X186912928Y-30674500D01*
X186270071Y-31531643D02*
X186412928Y-31603071D01*
X186770071Y-31603071D01*
X186912928Y-31531643D01*
X186984357Y-31388786D01*
X186984357Y-31245929D01*
X186912928Y-31103071D01*
X186770071Y-31031643D01*
X186412928Y-31031643D01*
X186270071Y-30960214D01*
X185555785Y-30603071D02*
X185555785Y-31603071D01*
X185555785Y-30745929D02*
X185484357Y-30674500D01*
X185341499Y-30603071D01*
X185127214Y-30603071D01*
X184984357Y-30674500D01*
X184912928Y-30817357D01*
X184912928Y-31603071D01*
D12*
G36*
X201812831Y-28487718D02*
X201800775Y-28506594D01*
X201784735Y-28551893D01*
X201766875Y-28616659D01*
X201750636Y-28687738D01*
X201728812Y-28785990D01*
X201702991Y-28892319D01*
X201677176Y-28990587D01*
X201664057Y-29036616D01*
X201640816Y-29121784D01*
X201631847Y-29180094D01*
X201638912Y-29216476D01*
X201663773Y-29235864D01*
X201708191Y-29243188D01*
X201738093Y-29243867D01*
X201804777Y-29251038D01*
X201842825Y-29274881D01*
X201857027Y-29318892D01*
X201857429Y-29330960D01*
X201869141Y-29374155D01*
X201890835Y-29399540D01*
X201925915Y-29431233D01*
X201950019Y-29476320D01*
X201966428Y-29542595D01*
X201974147Y-29597505D01*
X201993134Y-29693569D01*
X202026922Y-29762112D01*
X202079594Y-29806023D01*
X202155233Y-29828193D01*
X202257923Y-29831513D01*
X202300847Y-29828770D01*
X202401750Y-29820390D01*
X202471862Y-29815308D01*
X202516603Y-29814613D01*
X202541389Y-29819394D01*
X202551639Y-29830741D01*
X202552772Y-29849741D01*
X202550205Y-29877485D01*
X202550096Y-29878867D01*
X202535026Y-29972188D01*
X202505156Y-30081291D01*
X202464756Y-30193150D01*
X202418099Y-30294736D01*
X202407116Y-30314951D01*
X202322747Y-30432545D01*
X202210276Y-30541397D01*
X202077714Y-30636067D01*
X201933073Y-30711117D01*
X201784363Y-30761108D01*
X201734964Y-30771315D01*
X201621572Y-30790778D01*
X201621572Y-31733067D01*
X204597000Y-31733067D01*
X204596932Y-31170034D01*
X204596867Y-31017415D01*
X204596577Y-30895583D01*
X204595859Y-30801461D01*
X204594508Y-30731968D01*
X204592322Y-30684025D01*
X204589096Y-30654555D01*
X204584627Y-30640476D01*
X204578712Y-30638711D01*
X204571146Y-30646181D01*
X204563060Y-30657800D01*
X204496963Y-30734917D01*
X204419583Y-30788758D01*
X204391712Y-30800606D01*
X204341195Y-30812270D01*
X204281344Y-30817709D01*
X204224554Y-30816854D01*
X204183215Y-30809637D01*
X204170709Y-30801833D01*
X204173969Y-30779368D01*
X204195253Y-30742501D01*
X204208166Y-30725525D01*
X204253891Y-30644698D01*
X204265046Y-30559489D01*
X204241227Y-30474993D01*
X204229773Y-30454600D01*
X204190485Y-30404685D01*
X204151611Y-30385595D01*
X204109956Y-30397740D01*
X204062325Y-30441531D01*
X204031871Y-30480000D01*
X203931893Y-30593522D01*
X203824598Y-30674086D01*
X203711527Y-30721577D01*
X203594220Y-30735879D01*
X203474221Y-30716877D01*
X203353070Y-30664454D01*
X203232309Y-30578495D01*
X203193029Y-30542962D01*
X203072483Y-30405246D01*
X202981435Y-30251706D01*
X202938659Y-30142493D01*
X202920093Y-30054773D01*
X202911414Y-29949948D01*
X202912678Y-29841603D01*
X202923945Y-29743327D01*
X202936732Y-29691058D01*
X202952087Y-29643173D01*
X202961967Y-29611125D01*
X202963947Y-29603700D01*
X202949549Y-29598218D01*
X202914421Y-29601508D01*
X202872134Y-29611305D01*
X202837143Y-29624867D01*
X202765295Y-29646908D01*
X202687974Y-29645169D01*
X202620447Y-29620334D01*
X202612298Y-29614800D01*
X202572652Y-29575841D01*
X202534215Y-29522640D01*
X202504861Y-29467837D01*
X202492462Y-29424072D01*
X202492429Y-29422341D01*
X202505329Y-29400775D01*
X202532740Y-29398006D01*
X202557173Y-29415079D01*
X202583271Y-29425553D01*
X202638929Y-29428363D01*
X202675492Y-29426744D01*
X202760827Y-29413896D01*
X202821617Y-29384624D01*
X202868026Y-29332384D01*
X202893735Y-29286200D01*
X202923214Y-29192233D01*
X202917193Y-29103907D01*
X202876171Y-29022600D01*
X202800643Y-28949688D01*
X202763068Y-28924511D01*
X202688978Y-28866126D01*
X202634066Y-28796605D01*
X202604587Y-28724840D01*
X202601286Y-28694598D01*
X202584690Y-28649192D01*
X202558483Y-28625805D01*
X202512528Y-28606550D01*
X202442251Y-28586926D01*
X202359489Y-28569382D01*
X202276081Y-28556368D01*
X202203864Y-28550335D01*
X202193072Y-28550179D01*
X202120500Y-28550171D01*
X202184000Y-28587985D01*
X202247500Y-28625800D01*
X202193684Y-28631512D01*
X202142476Y-28648186D01*
X202099301Y-28678078D01*
X202065794Y-28706320D01*
X202040071Y-28718893D01*
X202039154Y-28718934D01*
X202026322Y-28716371D01*
X202015959Y-28703947D01*
X202004693Y-28674558D01*
X201989149Y-28621102D01*
X201984256Y-28603353D01*
X201965073Y-28552568D01*
X201935901Y-28522395D01*
X201899599Y-28504933D01*
X201852242Y-28490486D01*
X201817225Y-28486768D01*
X201812831Y-28487718D01*
X201812831Y-28487718D01*
G37*
X201812831Y-28487718D02*
X201800775Y-28506594D01*
X201784735Y-28551893D01*
X201766875Y-28616659D01*
X201750636Y-28687738D01*
X201728812Y-28785990D01*
X201702991Y-28892319D01*
X201677176Y-28990587D01*
X201664057Y-29036616D01*
X201640816Y-29121784D01*
X201631847Y-29180094D01*
X201638912Y-29216476D01*
X201663773Y-29235864D01*
X201708191Y-29243188D01*
X201738093Y-29243867D01*
X201804777Y-29251038D01*
X201842825Y-29274881D01*
X201857027Y-29318892D01*
X201857429Y-29330960D01*
X201869141Y-29374155D01*
X201890835Y-29399540D01*
X201925915Y-29431233D01*
X201950019Y-29476320D01*
X201966428Y-29542595D01*
X201974147Y-29597505D01*
X201993134Y-29693569D01*
X202026922Y-29762112D01*
X202079594Y-29806023D01*
X202155233Y-29828193D01*
X202257923Y-29831513D01*
X202300847Y-29828770D01*
X202401750Y-29820390D01*
X202471862Y-29815308D01*
X202516603Y-29814613D01*
X202541389Y-29819394D01*
X202551639Y-29830741D01*
X202552772Y-29849741D01*
X202550205Y-29877485D01*
X202550096Y-29878867D01*
X202535026Y-29972188D01*
X202505156Y-30081291D01*
X202464756Y-30193150D01*
X202418099Y-30294736D01*
X202407116Y-30314951D01*
X202322747Y-30432545D01*
X202210276Y-30541397D01*
X202077714Y-30636067D01*
X201933073Y-30711117D01*
X201784363Y-30761108D01*
X201734964Y-30771315D01*
X201621572Y-30790778D01*
X201621572Y-31733067D01*
X204597000Y-31733067D01*
X204596932Y-31170034D01*
X204596867Y-31017415D01*
X204596577Y-30895583D01*
X204595859Y-30801461D01*
X204594508Y-30731968D01*
X204592322Y-30684025D01*
X204589096Y-30654555D01*
X204584627Y-30640476D01*
X204578712Y-30638711D01*
X204571146Y-30646181D01*
X204563060Y-30657800D01*
X204496963Y-30734917D01*
X204419583Y-30788758D01*
X204391712Y-30800606D01*
X204341195Y-30812270D01*
X204281344Y-30817709D01*
X204224554Y-30816854D01*
X204183215Y-30809637D01*
X204170709Y-30801833D01*
X204173969Y-30779368D01*
X204195253Y-30742501D01*
X204208166Y-30725525D01*
X204253891Y-30644698D01*
X204265046Y-30559489D01*
X204241227Y-30474993D01*
X204229773Y-30454600D01*
X204190485Y-30404685D01*
X204151611Y-30385595D01*
X204109956Y-30397740D01*
X204062325Y-30441531D01*
X204031871Y-30480000D01*
X203931893Y-30593522D01*
X203824598Y-30674086D01*
X203711527Y-30721577D01*
X203594220Y-30735879D01*
X203474221Y-30716877D01*
X203353070Y-30664454D01*
X203232309Y-30578495D01*
X203193029Y-30542962D01*
X203072483Y-30405246D01*
X202981435Y-30251706D01*
X202938659Y-30142493D01*
X202920093Y-30054773D01*
X202911414Y-29949948D01*
X202912678Y-29841603D01*
X202923945Y-29743327D01*
X202936732Y-29691058D01*
X202952087Y-29643173D01*
X202961967Y-29611125D01*
X202963947Y-29603700D01*
X202949549Y-29598218D01*
X202914421Y-29601508D01*
X202872134Y-29611305D01*
X202837143Y-29624867D01*
X202765295Y-29646908D01*
X202687974Y-29645169D01*
X202620447Y-29620334D01*
X202612298Y-29614800D01*
X202572652Y-29575841D01*
X202534215Y-29522640D01*
X202504861Y-29467837D01*
X202492462Y-29424072D01*
X202492429Y-29422341D01*
X202505329Y-29400775D01*
X202532740Y-29398006D01*
X202557173Y-29415079D01*
X202583271Y-29425553D01*
X202638929Y-29428363D01*
X202675492Y-29426744D01*
X202760827Y-29413896D01*
X202821617Y-29384624D01*
X202868026Y-29332384D01*
X202893735Y-29286200D01*
X202923214Y-29192233D01*
X202917193Y-29103907D01*
X202876171Y-29022600D01*
X202800643Y-28949688D01*
X202763068Y-28924511D01*
X202688978Y-28866126D01*
X202634066Y-28796605D01*
X202604587Y-28724840D01*
X202601286Y-28694598D01*
X202584690Y-28649192D01*
X202558483Y-28625805D01*
X202512528Y-28606550D01*
X202442251Y-28586926D01*
X202359489Y-28569382D01*
X202276081Y-28556368D01*
X202203864Y-28550335D01*
X202193072Y-28550179D01*
X202120500Y-28550171D01*
X202184000Y-28587985D01*
X202247500Y-28625800D01*
X202193684Y-28631512D01*
X202142476Y-28648186D01*
X202099301Y-28678078D01*
X202065794Y-28706320D01*
X202040071Y-28718893D01*
X202039154Y-28718934D01*
X202026322Y-28716371D01*
X202015959Y-28703947D01*
X202004693Y-28674558D01*
X201989149Y-28621102D01*
X201984256Y-28603353D01*
X201965073Y-28552568D01*
X201935901Y-28522395D01*
X201899599Y-28504933D01*
X201852242Y-28490486D01*
X201817225Y-28486768D01*
X201812831Y-28487718D01*
G36*
X201621572Y-27613632D02*
X201713794Y-27694145D01*
X201763228Y-27736209D01*
X201798041Y-27759393D01*
X201829993Y-27768067D01*
X201870847Y-27766602D01*
X201899758Y-27763254D01*
X201975812Y-27749194D01*
X202077125Y-27723395D01*
X202195970Y-27688227D01*
X202324618Y-27646058D01*
X202455341Y-27599257D01*
X202535591Y-27568339D01*
X202710002Y-27505097D01*
X202857650Y-27464620D01*
X202978660Y-27446935D01*
X203073159Y-27452066D01*
X203141273Y-27480040D01*
X203183128Y-27530882D01*
X203198849Y-27604618D01*
X203188650Y-27700866D01*
X203177300Y-27753832D01*
X203106955Y-27694516D01*
X203071401Y-27667218D01*
X203035340Y-27647359D01*
X202994923Y-27635455D01*
X202946301Y-27632020D01*
X202885625Y-27637567D01*
X202809046Y-27652610D01*
X202712716Y-27677664D01*
X202592786Y-27713242D01*
X202445406Y-27759860D01*
X202324999Y-27798959D01*
X202197908Y-27840630D01*
X202082888Y-27878635D01*
X201984128Y-27911567D01*
X201905814Y-27938017D01*
X201852136Y-27956580D01*
X201827279Y-27965848D01*
X201826070Y-27966606D01*
X201841606Y-27976416D01*
X201883869Y-28002795D01*
X201949363Y-28043568D01*
X202034593Y-28096562D01*
X202136063Y-28159603D01*
X202250278Y-28230518D01*
X202347286Y-28290719D01*
X202472373Y-28369075D01*
X202590006Y-28444180D01*
X202696157Y-28513353D01*
X202786797Y-28573915D01*
X202857898Y-28623185D01*
X202905432Y-28658483D01*
X202922427Y-28673338D01*
X202961367Y-28725939D01*
X202988155Y-28782522D01*
X202992499Y-28799005D01*
X203019345Y-28880770D01*
X203065644Y-28936516D01*
X203103904Y-28959159D01*
X203138163Y-28978525D01*
X203151235Y-28994104D01*
X203151215Y-28994226D01*
X203148694Y-29015985D01*
X203144081Y-29062749D01*
X203138228Y-29125769D01*
X203136118Y-29149218D01*
X203136341Y-29330851D01*
X203169125Y-29503799D01*
X203233162Y-29664531D01*
X203327143Y-29809514D01*
X203416106Y-29905431D01*
X203544870Y-30009666D01*
X203670857Y-30080144D01*
X203794099Y-30116874D01*
X203914623Y-30119864D01*
X204032459Y-30089122D01*
X204043643Y-30084391D01*
X204136707Y-30029127D01*
X204227823Y-29948674D01*
X204308838Y-29851209D01*
X204361263Y-29765782D01*
X204405938Y-29693707D01*
X204463357Y-29619295D01*
X204505555Y-29574067D01*
X204594318Y-29489400D01*
X204603138Y-29265411D01*
X204607100Y-29156795D01*
X204608216Y-29078694D01*
X204605096Y-29027786D01*
X204596348Y-29000746D01*
X204580581Y-28994251D01*
X204556406Y-29004978D01*
X204522430Y-29029603D01*
X204508880Y-29040174D01*
X204451135Y-29085082D01*
X204380439Y-29139599D01*
X204312012Y-29191986D01*
X204311468Y-29192400D01*
X204235559Y-29254970D01*
X204185247Y-29310304D01*
X204154265Y-29367374D01*
X204136349Y-29435151D01*
X204134578Y-29445685D01*
X204122720Y-29498486D01*
X204107459Y-29540603D01*
X204102899Y-29548717D01*
X204052409Y-29595297D01*
X203979817Y-29627225D01*
X203896870Y-29642053D01*
X203815313Y-29637335D01*
X203762429Y-29619651D01*
X203703798Y-29575671D01*
X203654691Y-29513550D01*
X203623792Y-29446054D01*
X203617584Y-29406740D01*
X203617286Y-29357946D01*
X203753357Y-29366097D01*
X203822980Y-29369463D01*
X203863898Y-29368402D01*
X203883528Y-29361703D01*
X203889287Y-29348159D01*
X203889429Y-29343923D01*
X203898425Y-29312573D01*
X203907572Y-29303133D01*
X203923172Y-29279091D01*
X203925714Y-29262033D01*
X203942642Y-29234708D01*
X203992428Y-29197660D01*
X204047713Y-29165665D01*
X204200693Y-29065911D01*
X204241282Y-29028195D01*
X203900875Y-29028195D01*
X203873326Y-29112933D01*
X203818928Y-29184732D01*
X203745505Y-29227893D01*
X203653851Y-29242144D01*
X203544760Y-29227215D01*
X203540727Y-29226184D01*
X203480836Y-29201460D01*
X203422674Y-29162501D01*
X203375439Y-29117266D01*
X203348328Y-29073715D01*
X203345143Y-29056934D01*
X203360529Y-29005864D01*
X203402161Y-28971380D01*
X203463247Y-28956063D01*
X203536997Y-28962489D01*
X203569055Y-28971914D01*
X203603229Y-28979324D01*
X203619470Y-28964121D01*
X203624270Y-28949265D01*
X203653269Y-28888364D01*
X203698170Y-28844923D01*
X203751247Y-28821754D01*
X203804776Y-28821668D01*
X203851033Y-28847478D01*
X203863430Y-28862222D01*
X203897927Y-28940873D01*
X203900875Y-29028195D01*
X204241282Y-29028195D01*
X204328042Y-28947579D01*
X204429174Y-28814389D01*
X204503502Y-28670062D01*
X204512564Y-28640764D01*
X203654253Y-28640764D01*
X203641967Y-28710615D01*
X203614289Y-28760977D01*
X203548517Y-28813393D01*
X203462606Y-28845156D01*
X203366653Y-28854336D01*
X203270755Y-28839002D01*
X203247821Y-28831052D01*
X203201401Y-28805121D01*
X203156042Y-28767778D01*
X203121947Y-28728756D01*
X203109286Y-28698947D01*
X203121020Y-28677593D01*
X203149684Y-28645889D01*
X203153818Y-28641964D01*
X203197920Y-28612343D01*
X203254230Y-28601047D01*
X203278664Y-28600400D01*
X203327972Y-28598864D01*
X203354266Y-28588370D01*
X203369267Y-28560088D01*
X203379462Y-28524476D01*
X203409421Y-28456980D01*
X203453629Y-28414780D01*
X203507546Y-28401204D01*
X203539544Y-28407093D01*
X203588879Y-28440089D01*
X203625749Y-28496220D01*
X203648194Y-28566205D01*
X203654253Y-28640764D01*
X204512564Y-28640764D01*
X204550442Y-28518318D01*
X204569407Y-28362878D01*
X204565113Y-28293321D01*
X203345143Y-28293321D01*
X203332223Y-28362317D01*
X203298752Y-28427532D01*
X203264868Y-28463874D01*
X203185962Y-28504753D01*
X203091076Y-28523233D01*
X202991915Y-28518810D01*
X202900186Y-28490976D01*
X202880115Y-28480491D01*
X202826756Y-28436296D01*
X202805891Y-28388781D01*
X202815048Y-28343670D01*
X202851753Y-28306689D01*
X202913533Y-28283561D01*
X202967305Y-28278667D01*
X203019800Y-28277467D01*
X203045539Y-28270123D01*
X203054049Y-28251015D01*
X203054857Y-28227026D01*
X203066481Y-28157286D01*
X203097596Y-28103893D01*
X203142567Y-28071714D01*
X203195761Y-28065615D01*
X203229195Y-28076456D01*
X203269703Y-28111160D01*
X203306981Y-28167091D01*
X203334352Y-28231760D01*
X203345141Y-28292681D01*
X203345143Y-28293321D01*
X204565113Y-28293321D01*
X204559812Y-28207462D01*
X204521071Y-28055790D01*
X204516730Y-28046647D01*
X202945755Y-28046647D01*
X202941654Y-28110028D01*
X202934988Y-28133349D01*
X202909379Y-28152157D01*
X202859166Y-28159000D01*
X202793771Y-28153663D01*
X202728914Y-28138011D01*
X202659141Y-28098645D01*
X202609848Y-28035232D01*
X202585191Y-27953969D01*
X202583143Y-27920563D01*
X202583143Y-27838400D01*
X202702264Y-27838400D01*
X202788176Y-27841873D01*
X202846951Y-27854528D01*
X202887198Y-27879721D01*
X202917525Y-27920808D01*
X202918598Y-27922728D01*
X202937609Y-27978306D01*
X202945755Y-28046647D01*
X204516730Y-28046647D01*
X204452598Y-27911584D01*
X204353808Y-27778563D01*
X204277834Y-27704000D01*
X204140998Y-27602654D01*
X203995542Y-27531638D01*
X203837127Y-27489581D01*
X203661416Y-27475113D01*
X203562857Y-27477969D01*
X203497841Y-27480867D01*
X203454900Y-27476911D01*
X203419946Y-27462056D01*
X203378893Y-27432260D01*
X203364986Y-27421168D01*
X203273410Y-27333835D01*
X203212264Y-27244219D01*
X203183809Y-27155939D01*
X203181977Y-27128118D01*
X203197901Y-27039147D01*
X203242863Y-26968019D01*
X203313100Y-26918099D01*
X203404847Y-26892753D01*
X203448072Y-26890245D01*
X203536764Y-26902318D01*
X203606727Y-26940635D01*
X203662232Y-27007992D01*
X203680776Y-27042514D01*
X203714518Y-27112351D01*
X203733938Y-27056862D01*
X203763861Y-27008218D01*
X203811633Y-26964554D01*
X203816857Y-26961114D01*
X203893086Y-26931468D01*
X203976671Y-26928851D01*
X204059927Y-26949622D01*
X204135168Y-26990143D01*
X204194709Y-27046771D01*
X204230864Y-27115867D01*
X204238105Y-27160645D01*
X204239911Y-27196530D01*
X204242097Y-27211859D01*
X204242139Y-27211867D01*
X204258161Y-27204954D01*
X204295688Y-27187516D01*
X204315786Y-27178000D01*
X204391606Y-27153165D01*
X204471767Y-27144767D01*
X204541668Y-27153775D01*
X204561907Y-27161663D01*
X204572099Y-27165752D01*
X204580099Y-27164308D01*
X204586172Y-27153810D01*
X204590584Y-27130738D01*
X204593598Y-27091571D01*
X204595482Y-27032790D01*
X204596500Y-26950874D01*
X204596918Y-26842303D01*
X204597000Y-26703556D01*
X204597000Y-26212800D01*
X201621572Y-26212800D01*
X201621572Y-27613632D01*
X201621572Y-27613632D01*
G37*
X201621572Y-27613632D02*
X201713794Y-27694145D01*
X201763228Y-27736209D01*
X201798041Y-27759393D01*
X201829993Y-27768067D01*
X201870847Y-27766602D01*
X201899758Y-27763254D01*
X201975812Y-27749194D01*
X202077125Y-27723395D01*
X202195970Y-27688227D01*
X202324618Y-27646058D01*
X202455341Y-27599257D01*
X202535591Y-27568339D01*
X202710002Y-27505097D01*
X202857650Y-27464620D01*
X202978660Y-27446935D01*
X203073159Y-27452066D01*
X203141273Y-27480040D01*
X203183128Y-27530882D01*
X203198849Y-27604618D01*
X203188650Y-27700866D01*
X203177300Y-27753832D01*
X203106955Y-27694516D01*
X203071401Y-27667218D01*
X203035340Y-27647359D01*
X202994923Y-27635455D01*
X202946301Y-27632020D01*
X202885625Y-27637567D01*
X202809046Y-27652610D01*
X202712716Y-27677664D01*
X202592786Y-27713242D01*
X202445406Y-27759860D01*
X202324999Y-27798959D01*
X202197908Y-27840630D01*
X202082888Y-27878635D01*
X201984128Y-27911567D01*
X201905814Y-27938017D01*
X201852136Y-27956580D01*
X201827279Y-27965848D01*
X201826070Y-27966606D01*
X201841606Y-27976416D01*
X201883869Y-28002795D01*
X201949363Y-28043568D01*
X202034593Y-28096562D01*
X202136063Y-28159603D01*
X202250278Y-28230518D01*
X202347286Y-28290719D01*
X202472373Y-28369075D01*
X202590006Y-28444180D01*
X202696157Y-28513353D01*
X202786797Y-28573915D01*
X202857898Y-28623185D01*
X202905432Y-28658483D01*
X202922427Y-28673338D01*
X202961367Y-28725939D01*
X202988155Y-28782522D01*
X202992499Y-28799005D01*
X203019345Y-28880770D01*
X203065644Y-28936516D01*
X203103904Y-28959159D01*
X203138163Y-28978525D01*
X203151235Y-28994104D01*
X203151215Y-28994226D01*
X203148694Y-29015985D01*
X203144081Y-29062749D01*
X203138228Y-29125769D01*
X203136118Y-29149218D01*
X203136341Y-29330851D01*
X203169125Y-29503799D01*
X203233162Y-29664531D01*
X203327143Y-29809514D01*
X203416106Y-29905431D01*
X203544870Y-30009666D01*
X203670857Y-30080144D01*
X203794099Y-30116874D01*
X203914623Y-30119864D01*
X204032459Y-30089122D01*
X204043643Y-30084391D01*
X204136707Y-30029127D01*
X204227823Y-29948674D01*
X204308838Y-29851209D01*
X204361263Y-29765782D01*
X204405938Y-29693707D01*
X204463357Y-29619295D01*
X204505555Y-29574067D01*
X204594318Y-29489400D01*
X204603138Y-29265411D01*
X204607100Y-29156795D01*
X204608216Y-29078694D01*
X204605096Y-29027786D01*
X204596348Y-29000746D01*
X204580581Y-28994251D01*
X204556406Y-29004978D01*
X204522430Y-29029603D01*
X204508880Y-29040174D01*
X204451135Y-29085082D01*
X204380439Y-29139599D01*
X204312012Y-29191986D01*
X204311468Y-29192400D01*
X204235559Y-29254970D01*
X204185247Y-29310304D01*
X204154265Y-29367374D01*
X204136349Y-29435151D01*
X204134578Y-29445685D01*
X204122720Y-29498486D01*
X204107459Y-29540603D01*
X204102899Y-29548717D01*
X204052409Y-29595297D01*
X203979817Y-29627225D01*
X203896870Y-29642053D01*
X203815313Y-29637335D01*
X203762429Y-29619651D01*
X203703798Y-29575671D01*
X203654691Y-29513550D01*
X203623792Y-29446054D01*
X203617584Y-29406740D01*
X203617286Y-29357946D01*
X203753357Y-29366097D01*
X203822980Y-29369463D01*
X203863898Y-29368402D01*
X203883528Y-29361703D01*
X203889287Y-29348159D01*
X203889429Y-29343923D01*
X203898425Y-29312573D01*
X203907572Y-29303133D01*
X203923172Y-29279091D01*
X203925714Y-29262033D01*
X203942642Y-29234708D01*
X203992428Y-29197660D01*
X204047713Y-29165665D01*
X204200693Y-29065911D01*
X204241282Y-29028195D01*
X203900875Y-29028195D01*
X203873326Y-29112933D01*
X203818928Y-29184732D01*
X203745505Y-29227893D01*
X203653851Y-29242144D01*
X203544760Y-29227215D01*
X203540727Y-29226184D01*
X203480836Y-29201460D01*
X203422674Y-29162501D01*
X203375439Y-29117266D01*
X203348328Y-29073715D01*
X203345143Y-29056934D01*
X203360529Y-29005864D01*
X203402161Y-28971380D01*
X203463247Y-28956063D01*
X203536997Y-28962489D01*
X203569055Y-28971914D01*
X203603229Y-28979324D01*
X203619470Y-28964121D01*
X203624270Y-28949265D01*
X203653269Y-28888364D01*
X203698170Y-28844923D01*
X203751247Y-28821754D01*
X203804776Y-28821668D01*
X203851033Y-28847478D01*
X203863430Y-28862222D01*
X203897927Y-28940873D01*
X203900875Y-29028195D01*
X204241282Y-29028195D01*
X204328042Y-28947579D01*
X204429174Y-28814389D01*
X204503502Y-28670062D01*
X204512564Y-28640764D01*
X203654253Y-28640764D01*
X203641967Y-28710615D01*
X203614289Y-28760977D01*
X203548517Y-28813393D01*
X203462606Y-28845156D01*
X203366653Y-28854336D01*
X203270755Y-28839002D01*
X203247821Y-28831052D01*
X203201401Y-28805121D01*
X203156042Y-28767778D01*
X203121947Y-28728756D01*
X203109286Y-28698947D01*
X203121020Y-28677593D01*
X203149684Y-28645889D01*
X203153818Y-28641964D01*
X203197920Y-28612343D01*
X203254230Y-28601047D01*
X203278664Y-28600400D01*
X203327972Y-28598864D01*
X203354266Y-28588370D01*
X203369267Y-28560088D01*
X203379462Y-28524476D01*
X203409421Y-28456980D01*
X203453629Y-28414780D01*
X203507546Y-28401204D01*
X203539544Y-28407093D01*
X203588879Y-28440089D01*
X203625749Y-28496220D01*
X203648194Y-28566205D01*
X203654253Y-28640764D01*
X204512564Y-28640764D01*
X204550442Y-28518318D01*
X204569407Y-28362878D01*
X204565113Y-28293321D01*
X203345143Y-28293321D01*
X203332223Y-28362317D01*
X203298752Y-28427532D01*
X203264868Y-28463874D01*
X203185962Y-28504753D01*
X203091076Y-28523233D01*
X202991915Y-28518810D01*
X202900186Y-28490976D01*
X202880115Y-28480491D01*
X202826756Y-28436296D01*
X202805891Y-28388781D01*
X202815048Y-28343670D01*
X202851753Y-28306689D01*
X202913533Y-28283561D01*
X202967305Y-28278667D01*
X203019800Y-28277467D01*
X203045539Y-28270123D01*
X203054049Y-28251015D01*
X203054857Y-28227026D01*
X203066481Y-28157286D01*
X203097596Y-28103893D01*
X203142567Y-28071714D01*
X203195761Y-28065615D01*
X203229195Y-28076456D01*
X203269703Y-28111160D01*
X203306981Y-28167091D01*
X203334352Y-28231760D01*
X203345141Y-28292681D01*
X203345143Y-28293321D01*
X204565113Y-28293321D01*
X204559812Y-28207462D01*
X204521071Y-28055790D01*
X204516730Y-28046647D01*
X202945755Y-28046647D01*
X202941654Y-28110028D01*
X202934988Y-28133349D01*
X202909379Y-28152157D01*
X202859166Y-28159000D01*
X202793771Y-28153663D01*
X202728914Y-28138011D01*
X202659141Y-28098645D01*
X202609848Y-28035232D01*
X202585191Y-27953969D01*
X202583143Y-27920563D01*
X202583143Y-27838400D01*
X202702264Y-27838400D01*
X202788176Y-27841873D01*
X202846951Y-27854528D01*
X202887198Y-27879721D01*
X202917525Y-27920808D01*
X202918598Y-27922728D01*
X202937609Y-27978306D01*
X202945755Y-28046647D01*
X204516730Y-28046647D01*
X204452598Y-27911584D01*
X204353808Y-27778563D01*
X204277834Y-27704000D01*
X204140998Y-27602654D01*
X203995542Y-27531638D01*
X203837127Y-27489581D01*
X203661416Y-27475113D01*
X203562857Y-27477969D01*
X203497841Y-27480867D01*
X203454900Y-27476911D01*
X203419946Y-27462056D01*
X203378893Y-27432260D01*
X203364986Y-27421168D01*
X203273410Y-27333835D01*
X203212264Y-27244219D01*
X203183809Y-27155939D01*
X203181977Y-27128118D01*
X203197901Y-27039147D01*
X203242863Y-26968019D01*
X203313100Y-26918099D01*
X203404847Y-26892753D01*
X203448072Y-26890245D01*
X203536764Y-26902318D01*
X203606727Y-26940635D01*
X203662232Y-27007992D01*
X203680776Y-27042514D01*
X203714518Y-27112351D01*
X203733938Y-27056862D01*
X203763861Y-27008218D01*
X203811633Y-26964554D01*
X203816857Y-26961114D01*
X203893086Y-26931468D01*
X203976671Y-26928851D01*
X204059927Y-26949622D01*
X204135168Y-26990143D01*
X204194709Y-27046771D01*
X204230864Y-27115867D01*
X204238105Y-27160645D01*
X204239911Y-27196530D01*
X204242097Y-27211859D01*
X204242139Y-27211867D01*
X204258161Y-27204954D01*
X204295688Y-27187516D01*
X204315786Y-27178000D01*
X204391606Y-27153165D01*
X204471767Y-27144767D01*
X204541668Y-27153775D01*
X204561907Y-27161663D01*
X204572099Y-27165752D01*
X204580099Y-27164308D01*
X204586172Y-27153810D01*
X204590584Y-27130738D01*
X204593598Y-27091571D01*
X204595482Y-27032790D01*
X204596500Y-26950874D01*
X204596918Y-26842303D01*
X204597000Y-26703556D01*
X204597000Y-26212800D01*
X201621572Y-26212800D01*
X201621572Y-27613632D01*
G36*
X201819440Y-28179532D02*
X201807314Y-28192551D01*
X201804611Y-28224564D01*
X201806588Y-28265967D01*
X201812072Y-28354867D01*
X202038857Y-28426686D01*
X202144606Y-28458672D01*
X202231396Y-28481922D01*
X202295878Y-28495782D01*
X202334704Y-28499599D01*
X202344524Y-28492720D01*
X202337307Y-28484901D01*
X202224938Y-28397572D01*
X202118620Y-28321190D01*
X202022555Y-28258381D01*
X201940947Y-28211770D01*
X201877997Y-28183983D01*
X201844596Y-28177067D01*
X201819440Y-28179532D01*
X201819440Y-28179532D01*
G37*
X201819440Y-28179532D02*
X201807314Y-28192551D01*
X201804611Y-28224564D01*
X201806588Y-28265967D01*
X201812072Y-28354867D01*
X202038857Y-28426686D01*
X202144606Y-28458672D01*
X202231396Y-28481922D01*
X202295878Y-28495782D01*
X202334704Y-28499599D01*
X202344524Y-28492720D01*
X202337307Y-28484901D01*
X202224938Y-28397572D01*
X202118620Y-28321190D01*
X202022555Y-28258381D01*
X201940947Y-28211770D01*
X201877997Y-28183983D01*
X201844596Y-28177067D01*
X201819440Y-28179532D01*
G36*
X204363113Y-27278616D02*
X204324573Y-27311990D01*
X204288586Y-27366056D01*
X204262159Y-27427894D01*
X204252286Y-27482966D01*
X204264082Y-27546424D01*
X204294120Y-27608595D01*
X204329184Y-27648458D01*
X204348293Y-27655363D01*
X204362903Y-27636515D01*
X204371202Y-27613358D01*
X204395253Y-27570034D01*
X204441784Y-27535998D01*
X204467050Y-27523739D01*
X204529733Y-27490896D01*
X204564214Y-27457960D01*
X204577571Y-27416929D01*
X204578579Y-27397668D01*
X204562889Y-27340458D01*
X204521541Y-27295899D01*
X204464329Y-27269400D01*
X204401040Y-27266370D01*
X204363113Y-27278616D01*
X204363113Y-27278616D01*
G37*
X204363113Y-27278616D02*
X204324573Y-27311990D01*
X204288586Y-27366056D01*
X204262159Y-27427894D01*
X204252286Y-27482966D01*
X204264082Y-27546424D01*
X204294120Y-27608595D01*
X204329184Y-27648458D01*
X204348293Y-27655363D01*
X204362903Y-27636515D01*
X204371202Y-27613358D01*
X204395253Y-27570034D01*
X204441784Y-27535998D01*
X204467050Y-27523739D01*
X204529733Y-27490896D01*
X204564214Y-27457960D01*
X204577571Y-27416929D01*
X204578579Y-27397668D01*
X204562889Y-27340458D01*
X204521541Y-27295899D01*
X204464329Y-27269400D01*
X204401040Y-27266370D01*
X204363113Y-27278616D01*
G36*
X203956737Y-27032068D02*
X203886136Y-27059736D01*
X203839471Y-27112130D01*
X203818120Y-27187450D01*
X203816857Y-27214803D01*
X203819805Y-27268481D01*
X203833311Y-27306607D01*
X203864374Y-27344226D01*
X203887294Y-27366259D01*
X203940548Y-27411668D01*
X203974136Y-27429534D01*
X203989219Y-27420045D01*
X203986960Y-27383390D01*
X203986745Y-27382374D01*
X203984574Y-27349600D01*
X203997781Y-27319547D01*
X204031837Y-27282131D01*
X204050698Y-27264511D01*
X204101942Y-27209518D01*
X204121499Y-27163341D01*
X204110033Y-27119454D01*
X204070130Y-27073117D01*
X204028727Y-27040002D01*
X203992654Y-27028873D01*
X203956737Y-27032068D01*
X203956737Y-27032068D01*
G37*
X203956737Y-27032068D02*
X203886136Y-27059736D01*
X203839471Y-27112130D01*
X203818120Y-27187450D01*
X203816857Y-27214803D01*
X203819805Y-27268481D01*
X203833311Y-27306607D01*
X203864374Y-27344226D01*
X203887294Y-27366259D01*
X203940548Y-27411668D01*
X203974136Y-27429534D01*
X203989219Y-27420045D01*
X203986960Y-27383390D01*
X203986745Y-27382374D01*
X203984574Y-27349600D01*
X203997781Y-27319547D01*
X204031837Y-27282131D01*
X204050698Y-27264511D01*
X204101942Y-27209518D01*
X204121499Y-27163341D01*
X204110033Y-27119454D01*
X204070130Y-27073117D01*
X204028727Y-27040002D01*
X203992654Y-27028873D01*
X203956737Y-27032068D01*
G36*
X203347972Y-27020932D02*
X203308571Y-27067461D01*
X203293661Y-27128846D01*
X203301687Y-27196362D01*
X203331096Y-27261285D01*
X203380333Y-27314889D01*
X203403015Y-27329966D01*
X203445888Y-27348898D01*
X203490995Y-27360948D01*
X203529526Y-27365270D01*
X203552675Y-27361016D01*
X203551633Y-27347338D01*
X203548343Y-27343947D01*
X203530837Y-27307245D01*
X203529272Y-27254272D01*
X203543190Y-27198968D01*
X203553786Y-27178000D01*
X203577984Y-27116680D01*
X203568135Y-27064051D01*
X203536595Y-27026435D01*
X203475896Y-26993452D01*
X203409429Y-26992860D01*
X203347972Y-27020932D01*
X203347972Y-27020932D01*
G37*
X203347972Y-27020932D02*
X203308571Y-27067461D01*
X203293661Y-27128846D01*
X203301687Y-27196362D01*
X203331096Y-27261285D01*
X203380333Y-27314889D01*
X203403015Y-27329966D01*
X203445888Y-27348898D01*
X203490995Y-27360948D01*
X203529526Y-27365270D01*
X203552675Y-27361016D01*
X203551633Y-27347338D01*
X203548343Y-27343947D01*
X203530837Y-27307245D01*
X203529272Y-27254272D01*
X203543190Y-27198968D01*
X203553786Y-27178000D01*
X203577984Y-27116680D01*
X203568135Y-27064051D01*
X203536595Y-27026435D01*
X203475896Y-26993452D01*
X203409429Y-26992860D01*
X203347972Y-27020932D01*
D13*
X175539400Y-81153000D03*
D14*
X172999400Y-81153000D03*
X170459400Y-81153000D03*
D13*
X138303000Y-38735000D03*
D14*
X140843000Y-38735000D03*
X143383000Y-38735000D03*
D13*
X138266840Y-60370000D03*
D14*
X140806840Y-60370000D03*
X143346840Y-60370000D03*
D13*
X182397400Y-81178400D03*
D14*
X184937400Y-81178400D03*
X187477400Y-81178400D03*
D13*
X165100000Y-81127600D03*
D14*
X162560000Y-81127600D03*
X160020000Y-81127600D03*
D13*
X138316840Y-82120000D03*
D14*
X140856840Y-82120000D03*
X143396840Y-82120000D03*
D13*
X138266840Y-92755000D03*
D14*
X140806840Y-92755000D03*
X143346840Y-92755000D03*
D13*
X138266840Y-49575000D03*
D14*
X140806840Y-49575000D03*
X143346840Y-49575000D03*
D13*
X138266840Y-103315000D03*
D14*
X140806840Y-103315000D03*
X143346840Y-103315000D03*
D13*
X138266840Y-71165000D03*
D14*
X140806840Y-71165000D03*
X143346840Y-71165000D03*
D13*
X138266840Y-113875000D03*
D14*
X140806840Y-113875000D03*
X143346840Y-113875000D03*
D13*
X156337000Y-29718000D03*
X156337000Y-33909000D03*
X162394900Y-33921700D03*
X162394900Y-29654500D03*
X192659000Y-76073000D03*
D14*
X192659000Y-73533000D03*
D13*
X182372000Y-76200000D03*
D14*
X184912000Y-76200000D03*
X187452000Y-76200000D03*
D13*
X184632600Y-116509800D03*
D14*
X182092600Y-116509800D03*
D13*
X173126400Y-116509800D03*
D14*
X170586400Y-116509800D03*
D13*
X192659000Y-52959000D03*
D14*
X192659000Y-55499000D03*
X192659000Y-58039000D03*
X192659000Y-60579000D03*
X192659000Y-63119000D03*
X192659000Y-65659000D03*
X192659000Y-68199000D03*
D13*
X157099000Y-72771000D03*
D14*
X157099000Y-75311000D03*
D15*
X162560000Y-73406000D03*
D16*
X162560000Y-75906000D03*
D15*
X170815000Y-73406000D03*
D16*
X170815000Y-75906000D03*
D17*
X120967500Y-93218000D03*
X201930000Y-81153000D03*
D13*
X120904000Y-62611000D03*
D14*
X118364000Y-62611000D03*
X120904000Y-65151000D03*
X118364000Y-65151000D03*
X120904000Y-67691000D03*
X118364000Y-67691000D03*
X120904000Y-70231000D03*
X118364000Y-70231000D03*
X120904000Y-72771000D03*
X118364000Y-72771000D03*
X120904000Y-75311000D03*
X118364000Y-75311000D03*
X120904000Y-77851000D03*
X118364000Y-77851000D03*
X120904000Y-80391000D03*
X118364000Y-80391000D03*
X120904000Y-82931000D03*
X118364000Y-82931000D03*
X120904000Y-85471000D03*
X118364000Y-85471000D03*
D13*
X157695900Y-103200200D03*
X184492900Y-102235000D03*
D18*
X173800000Y-67700000D03*
X186842400Y-102336600D03*
X163004500Y-116522500D03*
X178917600Y-116357400D03*
X167513000Y-116522500D03*
X198628000Y-84797900D03*
X140843000Y-101155500D03*
X167703500Y-102362000D03*
X174117000Y-102425500D03*
X160616900Y-103644700D03*
X171602400Y-55384700D03*
X169760900Y-34937700D03*
X190931800Y-35191700D03*
X180708300Y-35026600D03*
X176326800Y-49593500D03*
X140804900Y-111836200D03*
X140804900Y-90690700D03*
X140806840Y-58278000D03*
X140806840Y-47610000D03*
X140806840Y-36688000D03*
X160045400Y-78371700D03*
X170522900Y-78371700D03*
X173126400Y-92913200D03*
X191008000Y-116433600D03*
X184800000Y-52300000D03*
X140806840Y-80249000D03*
X140806840Y-69200000D03*
X170600000Y-70500000D03*
X120904000Y-89154000D03*
X192747900Y-79387700D03*
X131616840Y-62620000D03*
X131416840Y-104420000D03*
X131616840Y-39820000D03*
X131064000Y-114998500D03*
X131416840Y-93120000D03*
X131416840Y-83320000D03*
X131616840Y-72420000D03*
X131616840Y-50720000D03*
X175056800Y-35052000D03*
X173431200Y-78422500D03*
X182460900Y-61353700D03*
X186944000Y-70933000D03*
X166751000Y-34925000D03*
X162585400Y-78371700D03*
D19*
X140843000Y-101155500D02*
X140779500Y-101155500D01*
D20*
X160591500Y-103670100D02*
X160591500Y-103822500D01*
X160616900Y-103644700D02*
X160591500Y-103670100D01*
D19*
X140802960Y-111838140D02*
X140802960Y-111838500D01*
X140804900Y-111836200D02*
X140802960Y-111838140D01*
X140802960Y-90692640D02*
X140802960Y-90693000D01*
X140804900Y-90690700D02*
X140802960Y-90692640D01*
X140804900Y-58279940D02*
X140804900Y-58280300D01*
X140806840Y-58278000D02*
X140804900Y-58279940D01*
X140804900Y-36686060D02*
X140804900Y-36677600D01*
X140806840Y-36688000D02*
X140804900Y-36686060D01*
X173126400Y-92913200D02*
X173113700Y-92913200D01*
X184785000Y-52285000D02*
X184785000Y-52264000D01*
X184800000Y-52300000D02*
X184785000Y-52285000D01*
X140806840Y-80249000D02*
X140806840Y-79995000D01*
X140806840Y-69200000D02*
X140806840Y-69073000D01*
D20*
X131064000Y-114650320D02*
X131064000Y-114998500D01*
X130416840Y-114003160D02*
X131064000Y-114650320D01*
X130416840Y-105420000D02*
X130416840Y-114003160D01*
X131416840Y-104420000D02*
X130416840Y-105420000D01*
X130410000Y-103413160D02*
X131416840Y-104420000D01*
X130410000Y-94110000D02*
X130410000Y-103413160D01*
X131400000Y-93120000D02*
X130410000Y-94110000D01*
X131416840Y-93120000D02*
X131400000Y-93120000D01*
X131416840Y-83320000D02*
X131400000Y-83320000D01*
X131400000Y-83320000D02*
X130410000Y-84310000D01*
X130410000Y-84310000D02*
X130410000Y-92113160D01*
X130410000Y-92113160D02*
X131416840Y-93120000D01*
X131616840Y-72420000D02*
X130416840Y-73620000D01*
X130416840Y-73620000D02*
X130416840Y-82320000D01*
X130416840Y-82320000D02*
X131416840Y-83320000D01*
X131616840Y-62620000D02*
X130416840Y-63820000D01*
X130416840Y-63820000D02*
X130416840Y-71203160D01*
X131616840Y-72403160D02*
X131616840Y-72420000D01*
X130416840Y-71203160D02*
X131616840Y-72403160D01*
X131616840Y-50720000D02*
X130416840Y-51920000D01*
X130416840Y-51920000D02*
X130416840Y-61403160D01*
X131616840Y-62603160D02*
X131616840Y-62620000D01*
X130416840Y-61403160D02*
X131616840Y-62603160D01*
X131616840Y-39820000D02*
X130416840Y-41020000D01*
X130416840Y-41020000D02*
X130416840Y-49520000D01*
X130416840Y-49520000D02*
X131616840Y-50720000D01*
D19*
X130410000Y-61410000D02*
X130410000Y-51910000D01*
X130410000Y-71210000D02*
X130410000Y-63810000D01*
D21*
X130410000Y-63810000D02*
X130410000Y-71210000D01*
X130410000Y-51910000D02*
X130410000Y-61410000D01*
D19*
X131616840Y-62620000D02*
X130416840Y-61420000D01*
X131616840Y-72420000D02*
X130416840Y-71220000D01*
D21*
X131616840Y-72420000D02*
X130416840Y-73620000D01*
X131616840Y-62620000D02*
X130416840Y-63820000D01*
D19*
X130416840Y-41020000D02*
X130416840Y-49520000D01*
X130416840Y-49520000D02*
X131616840Y-50720000D01*
D21*
X131616840Y-39820000D02*
X130416840Y-41020000D01*
D19*
X130410000Y-82310000D02*
X130410000Y-73610000D01*
X130410000Y-92110000D02*
X130410000Y-84310000D01*
D21*
X130410000Y-84310000D02*
X130410000Y-92110000D01*
D19*
X130410000Y-103410000D02*
X130410000Y-94110000D01*
D21*
X130410000Y-94010000D02*
X130410000Y-103410000D01*
D19*
X130410000Y-114010000D02*
X130410000Y-105410000D01*
D21*
X130410000Y-105410000D02*
X130410000Y-114010000D01*
X130410000Y-73610000D02*
X130410000Y-82310000D01*
D19*
X131616840Y-50720000D02*
X130416840Y-49520000D01*
D21*
X131616840Y-50720000D02*
X130416840Y-51920000D01*
D19*
X131416840Y-83320000D02*
X130416840Y-82320000D01*
X131416840Y-93120000D02*
X130416840Y-92120000D01*
X130416840Y-84320000D02*
X131416840Y-83320000D01*
X131416840Y-104420000D02*
X130416840Y-103420000D01*
X130416840Y-94120000D02*
X131416840Y-93120000D01*
X131064000Y-114998500D02*
X130416840Y-114020000D01*
D21*
X131416840Y-104420000D02*
X130416840Y-105420000D01*
X131416840Y-93120000D02*
X131316840Y-93120000D01*
X131316840Y-93120000D02*
X130416840Y-94020000D01*
X131416840Y-83320000D02*
X130416840Y-84320000D01*
X156402500Y-34721700D02*
X156402500Y-34691700D01*
X156412500Y-30431700D02*
X156392500Y-30411700D01*
D22*
X173278800Y-78270100D02*
X173431200Y-78422500D01*
X173278800Y-78270100D02*
X173278800Y-70180200D01*
X173278800Y-70180200D02*
X169316400Y-66217800D01*
X169316400Y-66217800D02*
X169316400Y-40792400D01*
X175056800Y-35052000D02*
X169316400Y-40792400D01*
D19*
X186944000Y-70933000D02*
X186944000Y-65844000D01*
X186944000Y-65844000D02*
X182600000Y-61500000D01*
X182600000Y-61500000D02*
X182460900Y-61353700D01*
D21*
X182460900Y-61353700D02*
X182600000Y-61500000D01*
D22*
X166751000Y-74333100D02*
X166751000Y-34925000D01*
X162585400Y-78371700D02*
X162585400Y-78333600D01*
X162585400Y-78333600D02*
X166751000Y-74333100D01*
D20*
X162585400Y-78333600D02*
X166751000Y-74333100D01*
D23*
G36*
X170157188Y-25956589D02*
X169932932Y-27084000D01*
X170157188Y-28211411D01*
X170795815Y-29167185D01*
X171751589Y-29805812D01*
X172879000Y-30030068D01*
X174006411Y-29805812D01*
X174962185Y-29167185D01*
X175600812Y-28211411D01*
X175825068Y-27084000D01*
X175600812Y-25956589D01*
X175024449Y-25094000D01*
X181610000Y-25094000D01*
X181610000Y-42238394D01*
X178255394Y-45593000D01*
X171704000Y-45593000D01*
X171654590Y-45603006D01*
X171614197Y-45630197D01*
X170459400Y-46784994D01*
X170459400Y-41265846D01*
X175288044Y-36437202D01*
X175331085Y-36437240D01*
X175840315Y-36226831D01*
X176230261Y-35837564D01*
X176441559Y-35328702D01*
X176442040Y-34777715D01*
X176231631Y-34268485D01*
X175842364Y-33878539D01*
X175333502Y-33667241D01*
X174782515Y-33666760D01*
X174273285Y-33877169D01*
X173883339Y-34266436D01*
X173672041Y-34775298D01*
X173672002Y-34820352D01*
X168508177Y-39984177D01*
X168260406Y-40354993D01*
X168173400Y-40792400D01*
X168173400Y-55039994D01*
X167894000Y-55319394D01*
X167894000Y-35740972D01*
X167924461Y-35710564D01*
X168135759Y-35201702D01*
X168136240Y-34650715D01*
X167925831Y-34141485D01*
X167536564Y-33751539D01*
X167027702Y-33540241D01*
X166476715Y-33539760D01*
X165967485Y-33750169D01*
X165577539Y-34139436D01*
X165366241Y-34648298D01*
X165365760Y-35199285D01*
X165576169Y-35708515D01*
X165608000Y-35740402D01*
X165608000Y-73846061D01*
X163928123Y-75459358D01*
X163777243Y-75094200D01*
X163508928Y-74825417D01*
X163595317Y-74809162D01*
X163811441Y-74670090D01*
X163956431Y-74457890D01*
X164007440Y-74206000D01*
X164007440Y-72606000D01*
X163963162Y-72370683D01*
X163824090Y-72154559D01*
X163611890Y-72009569D01*
X163360000Y-71958560D01*
X161760000Y-71958560D01*
X161524683Y-72002838D01*
X161308559Y-72141910D01*
X161163569Y-72354110D01*
X161112560Y-72606000D01*
X161112560Y-74206000D01*
X161156838Y-74441317D01*
X161295910Y-74657441D01*
X161508110Y-74802431D01*
X161613041Y-74823680D01*
X161344176Y-75092077D01*
X161125250Y-75619309D01*
X161124752Y-76190187D01*
X161342757Y-76717800D01*
X161746077Y-77121824D01*
X161864499Y-77170997D01*
X161801885Y-77196869D01*
X161411939Y-77586136D01*
X161200641Y-78094998D01*
X161200160Y-78645985D01*
X161410569Y-79155215D01*
X161799836Y-79545161D01*
X162157326Y-79693604D01*
X161991715Y-79726546D01*
X161509946Y-80048453D01*
X161435141Y-80160408D01*
X161354139Y-80012140D01*
X160825716Y-79586496D01*
X160539995Y-79468165D01*
X160274000Y-79632269D01*
X160274000Y-80873600D01*
X160294000Y-80873600D01*
X160294000Y-81381600D01*
X160274000Y-81381600D01*
X160274000Y-82622931D01*
X160539995Y-82787035D01*
X160825716Y-82668704D01*
X161354139Y-82243060D01*
X161435141Y-82094792D01*
X161509946Y-82206747D01*
X161991715Y-82528654D01*
X162560000Y-82641693D01*
X163128285Y-82528654D01*
X163610054Y-82206747D01*
X163637850Y-82165148D01*
X163646838Y-82212917D01*
X163785910Y-82429041D01*
X163998110Y-82574031D01*
X164250000Y-82625040D01*
X165950000Y-82625040D01*
X166185317Y-82580762D01*
X166401441Y-82441690D01*
X166546431Y-82229490D01*
X166597440Y-81977600D01*
X166597440Y-81672998D01*
X168799948Y-81672998D01*
X169125261Y-82268460D01*
X169653684Y-82694104D01*
X169939405Y-82812435D01*
X170205400Y-82648331D01*
X170205400Y-81407000D01*
X168961283Y-81407000D01*
X168799948Y-81672998D01*
X166597440Y-81672998D01*
X166597440Y-80633002D01*
X168799948Y-80633002D01*
X168961283Y-80899000D01*
X170205400Y-80899000D01*
X170205400Y-79657669D01*
X169939405Y-79493565D01*
X169653684Y-79611896D01*
X169125261Y-80037540D01*
X168799948Y-80633002D01*
X166597440Y-80633002D01*
X166597440Y-80277600D01*
X166553162Y-80042283D01*
X166414090Y-79826159D01*
X166201890Y-79681169D01*
X165950000Y-79630160D01*
X164250000Y-79630160D01*
X164014683Y-79674438D01*
X163798559Y-79813510D01*
X163653569Y-80025710D01*
X163639914Y-80093141D01*
X163610054Y-80048453D01*
X163128285Y-79726546D01*
X162996626Y-79700357D01*
X163368915Y-79546531D01*
X163758861Y-79157264D01*
X163970159Y-78648402D01*
X163970211Y-78588411D01*
X167542721Y-75157495D01*
X167549449Y-75147854D01*
X167559223Y-75141323D01*
X167676808Y-74965345D01*
X167797937Y-74791763D01*
X167800463Y-74780281D01*
X167806994Y-74770507D01*
X167848282Y-74562937D01*
X167893767Y-74356204D01*
X167891707Y-74344629D01*
X167894000Y-74333100D01*
X167894000Y-66092606D01*
X168211690Y-66410296D01*
X168260406Y-66655207D01*
X168508177Y-67026023D01*
X172135800Y-70653646D01*
X172135800Y-72242689D01*
X172079090Y-72154559D01*
X171866890Y-72009569D01*
X171615000Y-71958560D01*
X170015000Y-71958560D01*
X169779683Y-72002838D01*
X169563559Y-72141910D01*
X169418569Y-72354110D01*
X169367560Y-72606000D01*
X169367560Y-74206000D01*
X169411838Y-74441317D01*
X169550910Y-74657441D01*
X169763110Y-74802431D01*
X169868041Y-74823680D01*
X169599176Y-75092077D01*
X169380250Y-75619309D01*
X169379752Y-76190187D01*
X169597757Y-76717800D01*
X170001077Y-77121824D01*
X170528309Y-77340750D01*
X171099187Y-77341248D01*
X171626800Y-77123243D01*
X172030824Y-76719923D01*
X172135800Y-76467113D01*
X172135800Y-77930598D01*
X172046441Y-78145798D01*
X172045960Y-78696785D01*
X172256369Y-79206015D01*
X172645636Y-79595961D01*
X172830142Y-79672575D01*
X172431115Y-79751946D01*
X171949346Y-80073853D01*
X171874541Y-80185808D01*
X171793539Y-80037540D01*
X171265116Y-79611896D01*
X170979395Y-79493565D01*
X170713400Y-79657669D01*
X170713400Y-80899000D01*
X170733400Y-80899000D01*
X170733400Y-81407000D01*
X170713400Y-81407000D01*
X170713400Y-82648331D01*
X170979395Y-82812435D01*
X171265116Y-82694104D01*
X171793539Y-82268460D01*
X171874541Y-82120192D01*
X171949346Y-82232147D01*
X172431115Y-82554054D01*
X172999400Y-82667093D01*
X173567685Y-82554054D01*
X174049454Y-82232147D01*
X174077250Y-82190548D01*
X174086238Y-82238317D01*
X174225310Y-82454441D01*
X174437510Y-82599431D01*
X174689400Y-82650440D01*
X176389400Y-82650440D01*
X176624717Y-82606162D01*
X176840841Y-82467090D01*
X176911000Y-82364409D01*
X176911000Y-83566000D01*
X176921006Y-83615410D01*
X176948197Y-83655803D01*
X183134000Y-89841606D01*
X183134000Y-101005004D01*
X183046469Y-101133110D01*
X182995460Y-101385000D01*
X182995460Y-103085000D01*
X183039738Y-103320317D01*
X183134000Y-103466804D01*
X183134000Y-114173000D01*
X183144006Y-114222410D01*
X183172447Y-114264035D01*
X183214841Y-114291315D01*
X183261000Y-114300000D01*
X183896000Y-114300000D01*
X183945410Y-114289994D01*
X183985803Y-114262803D01*
X186525803Y-111722803D01*
X186553666Y-111680789D01*
X186563000Y-111633000D01*
X186563000Y-87757000D01*
X186552994Y-87707590D01*
X186525803Y-87667197D01*
X181531157Y-82672551D01*
X181547400Y-82675840D01*
X183247400Y-82675840D01*
X183482717Y-82631562D01*
X183698841Y-82492490D01*
X183843831Y-82280290D01*
X183857486Y-82212859D01*
X183887346Y-82257547D01*
X184369115Y-82579454D01*
X184937400Y-82692493D01*
X185505685Y-82579454D01*
X185987454Y-82257547D01*
X186062259Y-82145592D01*
X186143261Y-82293860D01*
X186671684Y-82719504D01*
X186957405Y-82837835D01*
X187223400Y-82673731D01*
X187223400Y-81432400D01*
X187731400Y-81432400D01*
X187731400Y-82673731D01*
X187997395Y-82837835D01*
X188283116Y-82719504D01*
X188461287Y-82575987D01*
X200866223Y-82575987D01*
X200970086Y-82906339D01*
X201714129Y-83140218D01*
X202491036Y-83071560D01*
X202889914Y-82906339D01*
X202993777Y-82575987D01*
X201930000Y-81512210D01*
X200866223Y-82575987D01*
X188461287Y-82575987D01*
X188811539Y-82293860D01*
X189136852Y-81698398D01*
X188975517Y-81432400D01*
X187731400Y-81432400D01*
X187223400Y-81432400D01*
X187203400Y-81432400D01*
X187203400Y-80937129D01*
X199942782Y-80937129D01*
X200011440Y-81714036D01*
X200176661Y-82112914D01*
X200507013Y-82216777D01*
X201570790Y-81153000D01*
X202289210Y-81153000D01*
X203352987Y-82216777D01*
X203683339Y-82112914D01*
X203917218Y-81368871D01*
X203848560Y-80591964D01*
X203683339Y-80193086D01*
X203352987Y-80089223D01*
X202289210Y-81153000D01*
X201570790Y-81153000D01*
X200507013Y-80089223D01*
X200176661Y-80193086D01*
X199942782Y-80937129D01*
X187203400Y-80937129D01*
X187203400Y-80924400D01*
X187223400Y-80924400D01*
X187223400Y-79683069D01*
X187731400Y-79683069D01*
X187731400Y-80924400D01*
X188975517Y-80924400D01*
X189136852Y-80658402D01*
X188811539Y-80062940D01*
X188398222Y-79730013D01*
X200866223Y-79730013D01*
X201930000Y-80793790D01*
X202993777Y-79730013D01*
X202889914Y-79399661D01*
X202145871Y-79165782D01*
X201368964Y-79234440D01*
X200970086Y-79399661D01*
X200866223Y-79730013D01*
X188398222Y-79730013D01*
X188283116Y-79637296D01*
X187997395Y-79518965D01*
X187731400Y-79683069D01*
X187223400Y-79683069D01*
X186957405Y-79518965D01*
X186671684Y-79637296D01*
X186143261Y-80062940D01*
X186062259Y-80211208D01*
X185987454Y-80099253D01*
X185505685Y-79777346D01*
X184937400Y-79664307D01*
X184369115Y-79777346D01*
X183887346Y-80099253D01*
X183859550Y-80140852D01*
X183850562Y-80093083D01*
X183711490Y-79876959D01*
X183499290Y-79731969D01*
X183247400Y-79680960D01*
X181547400Y-79680960D01*
X181312083Y-79725238D01*
X181095959Y-79864310D01*
X180950969Y-80076510D01*
X180899960Y-80328400D01*
X180899960Y-82028400D01*
X180902962Y-82044356D01*
X180721000Y-81862394D01*
X180721000Y-75692000D01*
X180710994Y-75642590D01*
X180683803Y-75602197D01*
X180431606Y-75350000D01*
X180874560Y-75350000D01*
X180874560Y-77050000D01*
X180918838Y-77285317D01*
X181057910Y-77501441D01*
X181270110Y-77646431D01*
X181522000Y-77697440D01*
X183222000Y-77697440D01*
X183457317Y-77653162D01*
X183673441Y-77514090D01*
X183818431Y-77301890D01*
X183832086Y-77234459D01*
X183861946Y-77279147D01*
X184343715Y-77601054D01*
X184912000Y-77714093D01*
X185480285Y-77601054D01*
X185962054Y-77279147D01*
X186036859Y-77167192D01*
X186117861Y-77315460D01*
X186646284Y-77741104D01*
X186932005Y-77859435D01*
X187198000Y-77695331D01*
X187198000Y-76454000D01*
X187706000Y-76454000D01*
X187706000Y-77695331D01*
X187971995Y-77859435D01*
X188257716Y-77741104D01*
X188786139Y-77315460D01*
X189111452Y-76719998D01*
X189007889Y-76549250D01*
X190920000Y-76549250D01*
X190920000Y-77099833D01*
X191055342Y-77426578D01*
X191305422Y-77676658D01*
X191632167Y-77812000D01*
X192182750Y-77812000D01*
X192405000Y-77589750D01*
X192405000Y-76327000D01*
X192913000Y-76327000D01*
X192913000Y-77589750D01*
X193135250Y-77812000D01*
X193685833Y-77812000D01*
X194012578Y-77676658D01*
X194262658Y-77426578D01*
X194398000Y-77099833D01*
X194398000Y-76549250D01*
X194175750Y-76327000D01*
X192913000Y-76327000D01*
X192405000Y-76327000D01*
X191142250Y-76327000D01*
X190920000Y-76549250D01*
X189007889Y-76549250D01*
X188950117Y-76454000D01*
X187706000Y-76454000D01*
X187198000Y-76454000D01*
X187178000Y-76454000D01*
X187178000Y-75946000D01*
X187198000Y-75946000D01*
X187198000Y-74704669D01*
X187706000Y-74704669D01*
X187706000Y-75946000D01*
X188950117Y-75946000D01*
X189111452Y-75680002D01*
X188786139Y-75084540D01*
X188738501Y-75046167D01*
X190920000Y-75046167D01*
X190920000Y-75596750D01*
X191142250Y-75819000D01*
X192405000Y-75819000D01*
X192405000Y-75799000D01*
X192913000Y-75799000D01*
X192913000Y-75819000D01*
X194175750Y-75819000D01*
X194398000Y-75596750D01*
X194398000Y-75046167D01*
X194262658Y-74719422D01*
X194012578Y-74469342D01*
X193857145Y-74404960D01*
X194060054Y-74101285D01*
X194173093Y-73533000D01*
X194060054Y-72964715D01*
X193738147Y-72482946D01*
X193256378Y-72161039D01*
X192688093Y-72048000D01*
X192629907Y-72048000D01*
X192061622Y-72161039D01*
X191579853Y-72482946D01*
X191257946Y-72964715D01*
X191144907Y-73533000D01*
X191257946Y-74101285D01*
X191460855Y-74404960D01*
X191305422Y-74469342D01*
X191055342Y-74719422D01*
X190920000Y-75046167D01*
X188738501Y-75046167D01*
X188257716Y-74658896D01*
X187971995Y-74540565D01*
X187706000Y-74704669D01*
X187198000Y-74704669D01*
X186932005Y-74540565D01*
X186646284Y-74658896D01*
X186117861Y-75084540D01*
X186036859Y-75232808D01*
X185962054Y-75120853D01*
X185480285Y-74798946D01*
X184912000Y-74685907D01*
X184343715Y-74798946D01*
X183861946Y-75120853D01*
X183834150Y-75162452D01*
X183825162Y-75114683D01*
X183686090Y-74898559D01*
X183473890Y-74753569D01*
X183222000Y-74702560D01*
X181522000Y-74702560D01*
X181286683Y-74746838D01*
X181070559Y-74885910D01*
X180925569Y-75098110D01*
X180874560Y-75350000D01*
X180431606Y-75350000D01*
X172974000Y-67892394D01*
X172974000Y-61627985D01*
X181075660Y-61627985D01*
X181286069Y-62137215D01*
X181675336Y-62527161D01*
X182184198Y-62738459D01*
X182581570Y-62738806D01*
X186055000Y-66212236D01*
X186055000Y-69863470D01*
X185770539Y-70147436D01*
X185559241Y-70656298D01*
X185558760Y-71207285D01*
X185769169Y-71716515D01*
X186158436Y-72106461D01*
X186667298Y-72317759D01*
X187218285Y-72318240D01*
X187727515Y-72107831D01*
X188117461Y-71718564D01*
X188328759Y-71209702D01*
X188329240Y-70658715D01*
X188118831Y-70149485D01*
X187833000Y-69863155D01*
X187833000Y-65844000D01*
X187765329Y-65503794D01*
X187572618Y-65215382D01*
X183845783Y-61488547D01*
X183846140Y-61079415D01*
X183635731Y-60570185D01*
X183246464Y-60180239D01*
X182737602Y-59968941D01*
X182186615Y-59968460D01*
X181677385Y-60178869D01*
X181287439Y-60568136D01*
X181076141Y-61076998D01*
X181075660Y-61627985D01*
X172974000Y-61627985D01*
X172974000Y-57912000D01*
X172963994Y-57862590D01*
X172936803Y-57822197D01*
X170942000Y-55827394D01*
X170942000Y-55499000D01*
X191144907Y-55499000D01*
X191257946Y-56067285D01*
X191579853Y-56549054D01*
X191909026Y-56769000D01*
X191579853Y-56988946D01*
X191257946Y-57470715D01*
X191144907Y-58039000D01*
X191257946Y-58607285D01*
X191579853Y-59089054D01*
X191909026Y-59309000D01*
X191579853Y-59528946D01*
X191257946Y-60010715D01*
X191144907Y-60579000D01*
X191257946Y-61147285D01*
X191579853Y-61629054D01*
X191909026Y-61849000D01*
X191579853Y-62068946D01*
X191257946Y-62550715D01*
X191144907Y-63119000D01*
X191257946Y-63687285D01*
X191579853Y-64169054D01*
X191909026Y-64389000D01*
X191579853Y-64608946D01*
X191257946Y-65090715D01*
X191144907Y-65659000D01*
X191257946Y-66227285D01*
X191579853Y-66709054D01*
X191909026Y-66929000D01*
X191579853Y-67148946D01*
X191257946Y-67630715D01*
X191144907Y-68199000D01*
X191257946Y-68767285D01*
X191579853Y-69249054D01*
X192061622Y-69570961D01*
X192629907Y-69684000D01*
X192688093Y-69684000D01*
X193256378Y-69570961D01*
X193738147Y-69249054D01*
X194060054Y-68767285D01*
X194173093Y-68199000D01*
X194060054Y-67630715D01*
X193738147Y-67148946D01*
X193408974Y-66929000D01*
X193738147Y-66709054D01*
X194060054Y-66227285D01*
X194173093Y-65659000D01*
X194060054Y-65090715D01*
X193738147Y-64608946D01*
X193408974Y-64389000D01*
X193738147Y-64169054D01*
X194060054Y-63687285D01*
X194173093Y-63119000D01*
X194060054Y-62550715D01*
X193738147Y-62068946D01*
X193408974Y-61849000D01*
X193738147Y-61629054D01*
X194060054Y-61147285D01*
X194173093Y-60579000D01*
X194060054Y-60010715D01*
X193738147Y-59528946D01*
X193408974Y-59309000D01*
X193738147Y-59089054D01*
X194060054Y-58607285D01*
X194173093Y-58039000D01*
X194060054Y-57470715D01*
X193738147Y-56988946D01*
X193408974Y-56769000D01*
X193738147Y-56549054D01*
X194060054Y-56067285D01*
X194173093Y-55499000D01*
X194060054Y-54930715D01*
X193738147Y-54448946D01*
X193696548Y-54421150D01*
X193744317Y-54412162D01*
X193960441Y-54273090D01*
X194105431Y-54060890D01*
X194156440Y-53809000D01*
X194156440Y-52109000D01*
X194112162Y-51873683D01*
X193973090Y-51657559D01*
X193760890Y-51512569D01*
X193509000Y-51461560D01*
X191809000Y-51461560D01*
X191573683Y-51505838D01*
X191357559Y-51644910D01*
X191212569Y-51857110D01*
X191161560Y-52109000D01*
X191161560Y-53809000D01*
X191205838Y-54044317D01*
X191344910Y-54260441D01*
X191557110Y-54405431D01*
X191624541Y-54419086D01*
X191579853Y-54448946D01*
X191257946Y-54930715D01*
X191144907Y-55499000D01*
X170942000Y-55499000D01*
X170942000Y-48566606D01*
X172518606Y-46990000D01*
X179705000Y-46990000D01*
X179754410Y-46979994D01*
X179794803Y-46952803D01*
X183604803Y-43142803D01*
X183632666Y-43100789D01*
X183642000Y-43053000D01*
X183642000Y-32909500D01*
X201905072Y-32909500D01*
X201905072Y-32373067D01*
X204597000Y-32373067D01*
X204597038Y-32373059D01*
X204597077Y-32373067D01*
X204717330Y-32349132D01*
X204841917Y-32324350D01*
X204841951Y-32324327D01*
X204841988Y-32324320D01*
X204943442Y-32256513D01*
X205030000Y-32198677D01*
X205030000Y-38225212D01*
X204934185Y-38081815D01*
X203978411Y-37443188D01*
X202851000Y-37218932D01*
X201723589Y-37443188D01*
X200767815Y-38081815D01*
X200129188Y-39037589D01*
X199904932Y-40165000D01*
X200129188Y-41292411D01*
X200767815Y-42248185D01*
X201723589Y-42886812D01*
X202851000Y-43111068D01*
X203978411Y-42886812D01*
X204934185Y-42248185D01*
X205030000Y-42104788D01*
X205030000Y-115885282D01*
X204807185Y-115551815D01*
X203851411Y-114913188D01*
X202724000Y-114688932D01*
X201596589Y-114913188D01*
X200640815Y-115551815D01*
X200002188Y-116507589D01*
X199777932Y-117635000D01*
X200002188Y-118762411D01*
X200640815Y-119718185D01*
X201162854Y-120067000D01*
X119957146Y-120067000D01*
X120479185Y-119718185D01*
X121117812Y-118762411D01*
X121342068Y-117635000D01*
X121221686Y-117029798D01*
X168926948Y-117029798D01*
X169252261Y-117625260D01*
X169780684Y-118050904D01*
X170066405Y-118169235D01*
X170332400Y-118005131D01*
X170332400Y-116763800D01*
X169088283Y-116763800D01*
X168926948Y-117029798D01*
X121221686Y-117029798D01*
X121117812Y-116507589D01*
X120479185Y-115551815D01*
X119523411Y-114913188D01*
X118396000Y-114688932D01*
X117268589Y-114913188D01*
X116312815Y-115551815D01*
X116026000Y-115981064D01*
X116026000Y-94640987D01*
X119903723Y-94640987D01*
X120007586Y-94971339D01*
X120751629Y-95205218D01*
X121528536Y-95136560D01*
X121927414Y-94971339D01*
X122031277Y-94640987D01*
X120967500Y-93577210D01*
X119903723Y-94640987D01*
X116026000Y-94640987D01*
X116026000Y-93002129D01*
X118980282Y-93002129D01*
X119048940Y-93779036D01*
X119214161Y-94177914D01*
X119544513Y-94281777D01*
X120608290Y-93218000D01*
X121326710Y-93218000D01*
X122390487Y-94281777D01*
X122720839Y-94177914D01*
X122954718Y-93433871D01*
X122886060Y-92656964D01*
X122720839Y-92258086D01*
X122390487Y-92154223D01*
X121326710Y-93218000D01*
X120608290Y-93218000D01*
X119544513Y-92154223D01*
X119214161Y-92258086D01*
X118980282Y-93002129D01*
X116026000Y-93002129D01*
X116026000Y-91795013D01*
X119903723Y-91795013D01*
X120967500Y-92858790D01*
X122031277Y-91795013D01*
X121927414Y-91464661D01*
X121183371Y-91230782D01*
X120406464Y-91299440D01*
X120007586Y-91464661D01*
X119903723Y-91795013D01*
X116026000Y-91795013D01*
X116026000Y-62611000D01*
X116849907Y-62611000D01*
X116962946Y-63179285D01*
X117284853Y-63661054D01*
X117614026Y-63881000D01*
X117284853Y-64100946D01*
X116962946Y-64582715D01*
X116849907Y-65151000D01*
X116962946Y-65719285D01*
X117284853Y-66201054D01*
X117614026Y-66421000D01*
X117284853Y-66640946D01*
X116962946Y-67122715D01*
X116849907Y-67691000D01*
X116962946Y-68259285D01*
X117284853Y-68741054D01*
X117614026Y-68961000D01*
X117284853Y-69180946D01*
X116962946Y-69662715D01*
X116849907Y-70231000D01*
X116962946Y-70799285D01*
X117284853Y-71281054D01*
X117614026Y-71501000D01*
X117284853Y-71720946D01*
X116962946Y-72202715D01*
X116849907Y-72771000D01*
X116962946Y-73339285D01*
X117284853Y-73821054D01*
X117614026Y-74041000D01*
X117284853Y-74260946D01*
X116962946Y-74742715D01*
X116849907Y-75311000D01*
X116962946Y-75879285D01*
X117284853Y-76361054D01*
X117614026Y-76581000D01*
X117284853Y-76800946D01*
X116962946Y-77282715D01*
X116849907Y-77851000D01*
X116962946Y-78419285D01*
X117284853Y-78901054D01*
X117614026Y-79121000D01*
X117284853Y-79340946D01*
X116962946Y-79822715D01*
X116849907Y-80391000D01*
X116962946Y-80959285D01*
X117284853Y-81441054D01*
X117614026Y-81661000D01*
X117284853Y-81880946D01*
X116962946Y-82362715D01*
X116849907Y-82931000D01*
X116962946Y-83499285D01*
X117284853Y-83981054D01*
X117614026Y-84201000D01*
X117284853Y-84420946D01*
X116962946Y-84902715D01*
X116849907Y-85471000D01*
X116962946Y-86039285D01*
X117284853Y-86521054D01*
X117766622Y-86842961D01*
X118334907Y-86956000D01*
X118393093Y-86956000D01*
X118961378Y-86842961D01*
X119443147Y-86521054D01*
X119495998Y-86441957D01*
X119788540Y-86805139D01*
X120384002Y-87130452D01*
X120650000Y-86969117D01*
X120650000Y-85725000D01*
X121158000Y-85725000D01*
X121158000Y-86969117D01*
X121423998Y-87130452D01*
X122019460Y-86805139D01*
X122445104Y-86276716D01*
X122563435Y-85990995D01*
X122399331Y-85725000D01*
X121158000Y-85725000D01*
X120650000Y-85725000D01*
X120630000Y-85725000D01*
X120630000Y-85217000D01*
X120650000Y-85217000D01*
X120650000Y-85197000D01*
X121158000Y-85197000D01*
X121158000Y-85217000D01*
X122399331Y-85217000D01*
X122563435Y-84951005D01*
X122445104Y-84665284D01*
X122158924Y-84310000D01*
X129394000Y-84310000D01*
X129394000Y-92113160D01*
X129438422Y-92336485D01*
X129471338Y-92501967D01*
X129691580Y-92831580D01*
X129971580Y-93111580D01*
X129691580Y-93391580D01*
X129471338Y-93721193D01*
X129471338Y-93721194D01*
X129394000Y-94110000D01*
X129394000Y-103413160D01*
X129438422Y-103636485D01*
X129471338Y-103801967D01*
X129691580Y-104131580D01*
X129980000Y-104420000D01*
X129698420Y-104701580D01*
X129478178Y-105031193D01*
X129478178Y-105031194D01*
X129400840Y-105420000D01*
X129400840Y-114003160D01*
X129452230Y-114261514D01*
X129478178Y-114391967D01*
X129686647Y-114703961D01*
X129679241Y-114721798D01*
X129678760Y-115272785D01*
X129889169Y-115782015D01*
X130278436Y-116171961D01*
X130787298Y-116383259D01*
X131338285Y-116383740D01*
X131847515Y-116173331D01*
X132031364Y-115989802D01*
X168926948Y-115989802D01*
X169088283Y-116255800D01*
X170332400Y-116255800D01*
X170332400Y-115014469D01*
X170840400Y-115014469D01*
X170840400Y-116255800D01*
X170860400Y-116255800D01*
X170860400Y-116763800D01*
X170840400Y-116763800D01*
X170840400Y-118005131D01*
X171106395Y-118169235D01*
X171392116Y-118050904D01*
X171770436Y-117746167D01*
X171812310Y-117811241D01*
X172024510Y-117956231D01*
X172276400Y-118007240D01*
X173976400Y-118007240D01*
X174211717Y-117962962D01*
X174427841Y-117823890D01*
X174572831Y-117611690D01*
X174623840Y-117359800D01*
X174623840Y-117029798D01*
X180433148Y-117029798D01*
X180758461Y-117625260D01*
X181286884Y-118050904D01*
X181572605Y-118169235D01*
X181838600Y-118005131D01*
X181838600Y-116763800D01*
X180594483Y-116763800D01*
X180433148Y-117029798D01*
X174623840Y-117029798D01*
X174623840Y-115989802D01*
X180433148Y-115989802D01*
X180594483Y-116255800D01*
X181838600Y-116255800D01*
X181838600Y-115014469D01*
X182346600Y-115014469D01*
X182346600Y-116255800D01*
X182366600Y-116255800D01*
X182366600Y-116763800D01*
X182346600Y-116763800D01*
X182346600Y-118005131D01*
X182612595Y-118169235D01*
X182898316Y-118050904D01*
X183276636Y-117746167D01*
X183318510Y-117811241D01*
X183530710Y-117956231D01*
X183782600Y-118007240D01*
X185482600Y-118007240D01*
X185717917Y-117962962D01*
X185934041Y-117823890D01*
X186079031Y-117611690D01*
X186130040Y-117359800D01*
X186130040Y-115659800D01*
X186085762Y-115424483D01*
X185946690Y-115208359D01*
X185734490Y-115063369D01*
X185482600Y-115012360D01*
X183782600Y-115012360D01*
X183547283Y-115056638D01*
X183331159Y-115195710D01*
X183277550Y-115274169D01*
X182898316Y-114968696D01*
X182612595Y-114850365D01*
X182346600Y-115014469D01*
X181838600Y-115014469D01*
X181572605Y-114850365D01*
X181286884Y-114968696D01*
X180758461Y-115394340D01*
X180433148Y-115989802D01*
X174623840Y-115989802D01*
X174623840Y-115659800D01*
X174579562Y-115424483D01*
X174440490Y-115208359D01*
X174228290Y-115063369D01*
X173976400Y-115012360D01*
X172276400Y-115012360D01*
X172041083Y-115056638D01*
X171824959Y-115195710D01*
X171771350Y-115274169D01*
X171392116Y-114968696D01*
X171106395Y-114850365D01*
X170840400Y-115014469D01*
X170332400Y-115014469D01*
X170066405Y-114850365D01*
X169780684Y-114968696D01*
X169252261Y-115394340D01*
X168926948Y-115989802D01*
X132031364Y-115989802D01*
X132237461Y-115784064D01*
X132448759Y-115275202D01*
X132449240Y-114724215D01*
X132238831Y-114214985D01*
X131849564Y-113825039D01*
X131552000Y-113701480D01*
X131432840Y-113582320D01*
X131432840Y-113025000D01*
X136769400Y-113025000D01*
X136769400Y-114725000D01*
X136813678Y-114960317D01*
X136952750Y-115176441D01*
X137164950Y-115321431D01*
X137416840Y-115372440D01*
X139116840Y-115372440D01*
X139352157Y-115328162D01*
X139568281Y-115189090D01*
X139621890Y-115110631D01*
X140001124Y-115416104D01*
X140286845Y-115534435D01*
X140552840Y-115370331D01*
X140552840Y-114129000D01*
X140532840Y-114129000D01*
X140532840Y-113621000D01*
X140552840Y-113621000D01*
X140552840Y-112379669D01*
X141060840Y-112379669D01*
X141060840Y-113621000D01*
X141080840Y-113621000D01*
X141080840Y-114129000D01*
X141060840Y-114129000D01*
X141060840Y-115370331D01*
X141326835Y-115534435D01*
X141612556Y-115416104D01*
X142140979Y-114990460D01*
X142221981Y-114842192D01*
X142296786Y-114954147D01*
X142778555Y-115276054D01*
X143346840Y-115389093D01*
X143915125Y-115276054D01*
X144396894Y-114954147D01*
X144718801Y-114472378D01*
X144831840Y-113904093D01*
X144831840Y-113845907D01*
X144718801Y-113277622D01*
X144396894Y-112795853D01*
X143915125Y-112473946D01*
X143346840Y-112360907D01*
X142778555Y-112473946D01*
X142296786Y-112795853D01*
X142221981Y-112907808D01*
X142140979Y-112759540D01*
X141612556Y-112333896D01*
X141326835Y-112215565D01*
X141060840Y-112379669D01*
X140552840Y-112379669D01*
X140286845Y-112215565D01*
X140001124Y-112333896D01*
X139622804Y-112638633D01*
X139580930Y-112573559D01*
X139368730Y-112428569D01*
X139116840Y-112377560D01*
X137416840Y-112377560D01*
X137181523Y-112421838D01*
X136965399Y-112560910D01*
X136820409Y-112773110D01*
X136769400Y-113025000D01*
X131432840Y-113025000D01*
X131432840Y-105840840D01*
X131468635Y-105805046D01*
X131691125Y-105805240D01*
X132200355Y-105594831D01*
X132590301Y-105205564D01*
X132801599Y-104696702D01*
X132802080Y-104145715D01*
X132591671Y-103636485D01*
X132202404Y-103246539D01*
X131693542Y-103035241D01*
X131468725Y-103035045D01*
X131426000Y-102992320D01*
X131426000Y-102465000D01*
X136769400Y-102465000D01*
X136769400Y-104165000D01*
X136813678Y-104400317D01*
X136952750Y-104616441D01*
X137164950Y-104761431D01*
X137416840Y-104812440D01*
X139116840Y-104812440D01*
X139352157Y-104768162D01*
X139568281Y-104629090D01*
X139621890Y-104550631D01*
X140001124Y-104856104D01*
X140286845Y-104974435D01*
X140552840Y-104810331D01*
X140552840Y-103569000D01*
X140532840Y-103569000D01*
X140532840Y-103061000D01*
X140552840Y-103061000D01*
X140552840Y-101819669D01*
X141060840Y-101819669D01*
X141060840Y-103061000D01*
X141080840Y-103061000D01*
X141080840Y-103569000D01*
X141060840Y-103569000D01*
X141060840Y-104810331D01*
X141326835Y-104974435D01*
X141612556Y-104856104D01*
X142140979Y-104430460D01*
X142221981Y-104282192D01*
X142296786Y-104394147D01*
X142778555Y-104716054D01*
X143346840Y-104829093D01*
X143915125Y-104716054D01*
X144396894Y-104394147D01*
X144718801Y-103912378D01*
X144831840Y-103344093D01*
X144831840Y-103285907D01*
X144718801Y-102717622D01*
X144473299Y-102350200D01*
X156198460Y-102350200D01*
X156198460Y-104050200D01*
X156242738Y-104285517D01*
X156381810Y-104501641D01*
X156594010Y-104646631D01*
X156845900Y-104697640D01*
X158545900Y-104697640D01*
X158781217Y-104653362D01*
X158997341Y-104514290D01*
X159142331Y-104302090D01*
X159193340Y-104050200D01*
X159193340Y-102350200D01*
X159149062Y-102114883D01*
X159009990Y-101898759D01*
X158797790Y-101753769D01*
X158545900Y-101702760D01*
X156845900Y-101702760D01*
X156610583Y-101747038D01*
X156394459Y-101886110D01*
X156249469Y-102098310D01*
X156198460Y-102350200D01*
X144473299Y-102350200D01*
X144396894Y-102235853D01*
X143915125Y-101913946D01*
X143346840Y-101800907D01*
X142778555Y-101913946D01*
X142296786Y-102235853D01*
X142221981Y-102347808D01*
X142140979Y-102199540D01*
X141612556Y-101773896D01*
X141326835Y-101655565D01*
X141060840Y-101819669D01*
X140552840Y-101819669D01*
X140286845Y-101655565D01*
X140001124Y-101773896D01*
X139622804Y-102078633D01*
X139580930Y-102013559D01*
X139368730Y-101868569D01*
X139116840Y-101817560D01*
X137416840Y-101817560D01*
X137181523Y-101861838D01*
X136965399Y-102000910D01*
X136820409Y-102213110D01*
X136769400Y-102465000D01*
X131426000Y-102465000D01*
X131426000Y-94530840D01*
X131451809Y-94505031D01*
X131691125Y-94505240D01*
X132200355Y-94294831D01*
X132590301Y-93905564D01*
X132801599Y-93396702D01*
X132802080Y-92845715D01*
X132591671Y-92336485D01*
X132202404Y-91946539D01*
X132102367Y-91905000D01*
X136769400Y-91905000D01*
X136769400Y-93605000D01*
X136813678Y-93840317D01*
X136952750Y-94056441D01*
X137164950Y-94201431D01*
X137416840Y-94252440D01*
X139116840Y-94252440D01*
X139352157Y-94208162D01*
X139568281Y-94069090D01*
X139621890Y-93990631D01*
X140001124Y-94296104D01*
X140286845Y-94414435D01*
X140552840Y-94250331D01*
X140552840Y-93009000D01*
X140532840Y-93009000D01*
X140532840Y-92501000D01*
X140552840Y-92501000D01*
X140552840Y-91259669D01*
X141060840Y-91259669D01*
X141060840Y-92501000D01*
X141080840Y-92501000D01*
X141080840Y-93009000D01*
X141060840Y-93009000D01*
X141060840Y-94250331D01*
X141326835Y-94414435D01*
X141612556Y-94296104D01*
X142140979Y-93870460D01*
X142221981Y-93722192D01*
X142296786Y-93834147D01*
X142778555Y-94156054D01*
X143346840Y-94269093D01*
X143915125Y-94156054D01*
X144396894Y-93834147D01*
X144718801Y-93352378D01*
X144831840Y-92784093D01*
X144831840Y-92725907D01*
X144718801Y-92157622D01*
X144396894Y-91675853D01*
X143915125Y-91353946D01*
X143346840Y-91240907D01*
X142778555Y-91353946D01*
X142296786Y-91675853D01*
X142221981Y-91787808D01*
X142140979Y-91639540D01*
X141612556Y-91213896D01*
X141326835Y-91095565D01*
X141060840Y-91259669D01*
X140552840Y-91259669D01*
X140286845Y-91095565D01*
X140001124Y-91213896D01*
X139622804Y-91518633D01*
X139580930Y-91453559D01*
X139368730Y-91308569D01*
X139116840Y-91257560D01*
X137416840Y-91257560D01*
X137181523Y-91301838D01*
X136965399Y-91440910D01*
X136820409Y-91653110D01*
X136769400Y-91905000D01*
X132102367Y-91905000D01*
X131693542Y-91735241D01*
X131468725Y-91735045D01*
X131426000Y-91692320D01*
X131426000Y-84730840D01*
X131451809Y-84705031D01*
X131691125Y-84705240D01*
X132200355Y-84494831D01*
X132590301Y-84105564D01*
X132801599Y-83596702D01*
X132802080Y-83045715D01*
X132591671Y-82536485D01*
X132202404Y-82146539D01*
X131693542Y-81935241D01*
X131468725Y-81935045D01*
X131432840Y-81899160D01*
X131432840Y-81270000D01*
X136819400Y-81270000D01*
X136819400Y-82970000D01*
X136863678Y-83205317D01*
X137002750Y-83421441D01*
X137214950Y-83566431D01*
X137466840Y-83617440D01*
X139166840Y-83617440D01*
X139402157Y-83573162D01*
X139618281Y-83434090D01*
X139671890Y-83355631D01*
X140051124Y-83661104D01*
X140336845Y-83779435D01*
X140602840Y-83615331D01*
X140602840Y-82374000D01*
X140582840Y-82374000D01*
X140582840Y-81866000D01*
X140602840Y-81866000D01*
X140602840Y-80624669D01*
X141110840Y-80624669D01*
X141110840Y-81866000D01*
X141130840Y-81866000D01*
X141130840Y-82374000D01*
X141110840Y-82374000D01*
X141110840Y-83615331D01*
X141376835Y-83779435D01*
X141662556Y-83661104D01*
X142190979Y-83235460D01*
X142271981Y-83087192D01*
X142346786Y-83199147D01*
X142828555Y-83521054D01*
X143396840Y-83634093D01*
X143965125Y-83521054D01*
X144446894Y-83199147D01*
X144768801Y-82717378D01*
X144881840Y-82149093D01*
X144881840Y-82090907D01*
X144793661Y-81647598D01*
X158360548Y-81647598D01*
X158685861Y-82243060D01*
X159214284Y-82668704D01*
X159500005Y-82787035D01*
X159766000Y-82622931D01*
X159766000Y-81381600D01*
X158521883Y-81381600D01*
X158360548Y-81647598D01*
X144793661Y-81647598D01*
X144768801Y-81522622D01*
X144446894Y-81040853D01*
X143965125Y-80718946D01*
X143405362Y-80607602D01*
X158360548Y-80607602D01*
X158521883Y-80873600D01*
X159766000Y-80873600D01*
X159766000Y-79632269D01*
X159500005Y-79468165D01*
X159214284Y-79586496D01*
X158685861Y-80012140D01*
X158360548Y-80607602D01*
X143405362Y-80607602D01*
X143396840Y-80605907D01*
X142828555Y-80718946D01*
X142346786Y-81040853D01*
X142271981Y-81152808D01*
X142190979Y-81004540D01*
X141662556Y-80578896D01*
X141376835Y-80460565D01*
X141110840Y-80624669D01*
X140602840Y-80624669D01*
X140336845Y-80460565D01*
X140051124Y-80578896D01*
X139672804Y-80883633D01*
X139630930Y-80818559D01*
X139418730Y-80673569D01*
X139166840Y-80622560D01*
X137466840Y-80622560D01*
X137231523Y-80666838D01*
X137015399Y-80805910D01*
X136870409Y-81018110D01*
X136819400Y-81270000D01*
X131432840Y-81270000D01*
X131432840Y-75311000D01*
X155584907Y-75311000D01*
X155697946Y-75879285D01*
X156019853Y-76361054D01*
X156501622Y-76682961D01*
X157069907Y-76796000D01*
X157128093Y-76796000D01*
X157696378Y-76682961D01*
X158178147Y-76361054D01*
X158500054Y-75879285D01*
X158613093Y-75311000D01*
X158500054Y-74742715D01*
X158178147Y-74260946D01*
X158136548Y-74233150D01*
X158184317Y-74224162D01*
X158400441Y-74085090D01*
X158545431Y-73872890D01*
X158596440Y-73621000D01*
X158596440Y-71921000D01*
X158552162Y-71685683D01*
X158413090Y-71469559D01*
X158200890Y-71324569D01*
X157949000Y-71273560D01*
X156249000Y-71273560D01*
X156013683Y-71317838D01*
X155797559Y-71456910D01*
X155652569Y-71669110D01*
X155601560Y-71921000D01*
X155601560Y-73621000D01*
X155645838Y-73856317D01*
X155784910Y-74072441D01*
X155997110Y-74217431D01*
X156064541Y-74231086D01*
X156019853Y-74260946D01*
X155697946Y-74742715D01*
X155584907Y-75311000D01*
X131432840Y-75311000D01*
X131432840Y-74040840D01*
X131668635Y-73805046D01*
X131891125Y-73805240D01*
X132400355Y-73594831D01*
X132790301Y-73205564D01*
X133001599Y-72696702D01*
X133002080Y-72145715D01*
X132791671Y-71636485D01*
X132402404Y-71246539D01*
X131893542Y-71035241D01*
X131685580Y-71035059D01*
X131432840Y-70782320D01*
X131432840Y-70315000D01*
X136769400Y-70315000D01*
X136769400Y-72015000D01*
X136813678Y-72250317D01*
X136952750Y-72466441D01*
X137164950Y-72611431D01*
X137416840Y-72662440D01*
X139116840Y-72662440D01*
X139352157Y-72618162D01*
X139568281Y-72479090D01*
X139621890Y-72400631D01*
X140001124Y-72706104D01*
X140286845Y-72824435D01*
X140552840Y-72660331D01*
X140552840Y-71419000D01*
X140532840Y-71419000D01*
X140532840Y-70911000D01*
X140552840Y-70911000D01*
X140552840Y-69669669D01*
X141060840Y-69669669D01*
X141060840Y-70911000D01*
X141080840Y-70911000D01*
X141080840Y-71419000D01*
X141060840Y-71419000D01*
X141060840Y-72660331D01*
X141326835Y-72824435D01*
X141612556Y-72706104D01*
X142140979Y-72280460D01*
X142221981Y-72132192D01*
X142296786Y-72244147D01*
X142778555Y-72566054D01*
X143346840Y-72679093D01*
X143915125Y-72566054D01*
X144396894Y-72244147D01*
X144718801Y-71762378D01*
X144831840Y-71194093D01*
X144831840Y-71135907D01*
X144718801Y-70567622D01*
X144396894Y-70085853D01*
X143915125Y-69763946D01*
X143346840Y-69650907D01*
X142778555Y-69763946D01*
X142296786Y-70085853D01*
X142221981Y-70197808D01*
X142140979Y-70049540D01*
X141612556Y-69623896D01*
X141326835Y-69505565D01*
X141060840Y-69669669D01*
X140552840Y-69669669D01*
X140286845Y-69505565D01*
X140001124Y-69623896D01*
X139622804Y-69928633D01*
X139580930Y-69863559D01*
X139368730Y-69718569D01*
X139116840Y-69667560D01*
X137416840Y-69667560D01*
X137181523Y-69711838D01*
X136965399Y-69850910D01*
X136820409Y-70063110D01*
X136769400Y-70315000D01*
X131432840Y-70315000D01*
X131432840Y-64240840D01*
X131668635Y-64005046D01*
X131891125Y-64005240D01*
X132400355Y-63794831D01*
X132790301Y-63405564D01*
X133001599Y-62896702D01*
X133002080Y-62345715D01*
X132791671Y-61836485D01*
X132402404Y-61446539D01*
X131893542Y-61235241D01*
X131685580Y-61235059D01*
X131432840Y-60982320D01*
X131432840Y-59520000D01*
X136769400Y-59520000D01*
X136769400Y-61220000D01*
X136813678Y-61455317D01*
X136952750Y-61671441D01*
X137164950Y-61816431D01*
X137416840Y-61867440D01*
X139116840Y-61867440D01*
X139352157Y-61823162D01*
X139568281Y-61684090D01*
X139621890Y-61605631D01*
X140001124Y-61911104D01*
X140286845Y-62029435D01*
X140552840Y-61865331D01*
X140552840Y-60624000D01*
X140532840Y-60624000D01*
X140532840Y-60116000D01*
X140552840Y-60116000D01*
X140552840Y-58874669D01*
X141060840Y-58874669D01*
X141060840Y-60116000D01*
X141080840Y-60116000D01*
X141080840Y-60624000D01*
X141060840Y-60624000D01*
X141060840Y-61865331D01*
X141326835Y-62029435D01*
X141612556Y-61911104D01*
X142140979Y-61485460D01*
X142221981Y-61337192D01*
X142296786Y-61449147D01*
X142778555Y-61771054D01*
X143346840Y-61884093D01*
X143915125Y-61771054D01*
X144396894Y-61449147D01*
X144718801Y-60967378D01*
X144831840Y-60399093D01*
X144831840Y-60340907D01*
X144718801Y-59772622D01*
X144396894Y-59290853D01*
X143915125Y-58968946D01*
X143346840Y-58855907D01*
X142778555Y-58968946D01*
X142296786Y-59290853D01*
X142221981Y-59402808D01*
X142140979Y-59254540D01*
X141612556Y-58828896D01*
X141326835Y-58710565D01*
X141060840Y-58874669D01*
X140552840Y-58874669D01*
X140286845Y-58710565D01*
X140001124Y-58828896D01*
X139622804Y-59133633D01*
X139580930Y-59068559D01*
X139368730Y-58923569D01*
X139116840Y-58872560D01*
X137416840Y-58872560D01*
X137181523Y-58916838D01*
X136965399Y-59055910D01*
X136820409Y-59268110D01*
X136769400Y-59520000D01*
X131432840Y-59520000D01*
X131432840Y-52340840D01*
X131668635Y-52105046D01*
X131891125Y-52105240D01*
X132400355Y-51894831D01*
X132790301Y-51505564D01*
X133001599Y-50996702D01*
X133002080Y-50445715D01*
X132791671Y-49936485D01*
X132402404Y-49546539D01*
X131893542Y-49335241D01*
X131668725Y-49335045D01*
X131432840Y-49099160D01*
X131432840Y-48725000D01*
X136769400Y-48725000D01*
X136769400Y-50425000D01*
X136813678Y-50660317D01*
X136952750Y-50876441D01*
X137164950Y-51021431D01*
X137416840Y-51072440D01*
X139116840Y-51072440D01*
X139352157Y-51028162D01*
X139568281Y-50889090D01*
X139621890Y-50810631D01*
X140001124Y-51116104D01*
X140286845Y-51234435D01*
X140552840Y-51070331D01*
X140552840Y-49829000D01*
X140532840Y-49829000D01*
X140532840Y-49321000D01*
X140552840Y-49321000D01*
X140552840Y-48079669D01*
X141060840Y-48079669D01*
X141060840Y-49321000D01*
X141080840Y-49321000D01*
X141080840Y-49829000D01*
X141060840Y-49829000D01*
X141060840Y-51070331D01*
X141326835Y-51234435D01*
X141612556Y-51116104D01*
X142140979Y-50690460D01*
X142221981Y-50542192D01*
X142296786Y-50654147D01*
X142778555Y-50976054D01*
X143346840Y-51089093D01*
X143915125Y-50976054D01*
X144396894Y-50654147D01*
X144718801Y-50172378D01*
X144831840Y-49604093D01*
X144831840Y-49545907D01*
X144718801Y-48977622D01*
X144396894Y-48495853D01*
X143915125Y-48173946D01*
X143346840Y-48060907D01*
X142778555Y-48173946D01*
X142296786Y-48495853D01*
X142221981Y-48607808D01*
X142140979Y-48459540D01*
X141612556Y-48033896D01*
X141326835Y-47915565D01*
X141060840Y-48079669D01*
X140552840Y-48079669D01*
X140286845Y-47915565D01*
X140001124Y-48033896D01*
X139622804Y-48338633D01*
X139580930Y-48273559D01*
X139368730Y-48128569D01*
X139116840Y-48077560D01*
X137416840Y-48077560D01*
X137181523Y-48121838D01*
X136965399Y-48260910D01*
X136820409Y-48473110D01*
X136769400Y-48725000D01*
X131432840Y-48725000D01*
X131432840Y-41440840D01*
X131668635Y-41205046D01*
X131891125Y-41205240D01*
X132400355Y-40994831D01*
X132790301Y-40605564D01*
X133001599Y-40096702D01*
X133002080Y-39545715D01*
X132791671Y-39036485D01*
X132402404Y-38646539D01*
X131893542Y-38435241D01*
X131342555Y-38434760D01*
X130833325Y-38645169D01*
X130443379Y-39034436D01*
X130232081Y-39543298D01*
X130231885Y-39768115D01*
X129698420Y-40301580D01*
X129478178Y-40631193D01*
X129478178Y-40631194D01*
X129400840Y-41020000D01*
X129400840Y-49520000D01*
X129462304Y-49829000D01*
X129478178Y-49908807D01*
X129698420Y-50238420D01*
X130180000Y-50720000D01*
X129698420Y-51201580D01*
X129478178Y-51531193D01*
X129478178Y-51531194D01*
X129400840Y-51920000D01*
X129400840Y-61403160D01*
X129445773Y-61629054D01*
X129478178Y-61791967D01*
X129698420Y-62121580D01*
X130188420Y-62611580D01*
X129698420Y-63101580D01*
X129478178Y-63431193D01*
X129478178Y-63431194D01*
X129400840Y-63820000D01*
X129400840Y-71203160D01*
X129424990Y-71324569D01*
X129478178Y-71591967D01*
X129698420Y-71921580D01*
X130188420Y-72411580D01*
X129698420Y-72901580D01*
X129478178Y-73231193D01*
X129478178Y-73231194D01*
X129400840Y-73620000D01*
X129400840Y-82320000D01*
X129461474Y-82624831D01*
X129478178Y-82708807D01*
X129698420Y-83038420D01*
X129971580Y-83311580D01*
X129691580Y-83591580D01*
X129471338Y-83921193D01*
X129471338Y-83921194D01*
X129394000Y-84310000D01*
X122158924Y-84310000D01*
X122019460Y-84136861D01*
X121871192Y-84055859D01*
X121983147Y-83981054D01*
X122305054Y-83499285D01*
X122418093Y-82931000D01*
X122305054Y-82362715D01*
X121983147Y-81880946D01*
X121653974Y-81661000D01*
X121983147Y-81441054D01*
X122305054Y-80959285D01*
X122418093Y-80391000D01*
X122305054Y-79822715D01*
X121983147Y-79340946D01*
X121653974Y-79121000D01*
X121983147Y-78901054D01*
X122305054Y-78419285D01*
X122418093Y-77851000D01*
X122305054Y-77282715D01*
X121983147Y-76800946D01*
X121653974Y-76581000D01*
X121983147Y-76361054D01*
X122305054Y-75879285D01*
X122418093Y-75311000D01*
X122305054Y-74742715D01*
X121983147Y-74260946D01*
X121653974Y-74041000D01*
X121983147Y-73821054D01*
X122305054Y-73339285D01*
X122418093Y-72771000D01*
X122305054Y-72202715D01*
X121983147Y-71720946D01*
X121653974Y-71501000D01*
X121983147Y-71281054D01*
X122305054Y-70799285D01*
X122418093Y-70231000D01*
X122305054Y-69662715D01*
X121983147Y-69180946D01*
X121653974Y-68961000D01*
X121983147Y-68741054D01*
X122305054Y-68259285D01*
X122418093Y-67691000D01*
X122305054Y-67122715D01*
X121983147Y-66640946D01*
X121653974Y-66421000D01*
X121983147Y-66201054D01*
X122305054Y-65719285D01*
X122418093Y-65151000D01*
X122305054Y-64582715D01*
X121983147Y-64100946D01*
X121941548Y-64073150D01*
X121989317Y-64064162D01*
X122205441Y-63925090D01*
X122350431Y-63712890D01*
X122401440Y-63461000D01*
X122401440Y-61761000D01*
X122357162Y-61525683D01*
X122218090Y-61309559D01*
X122005890Y-61164569D01*
X121754000Y-61113560D01*
X120054000Y-61113560D01*
X119818683Y-61157838D01*
X119602559Y-61296910D01*
X119457569Y-61509110D01*
X119446159Y-61565454D01*
X119443147Y-61560946D01*
X118961378Y-61239039D01*
X118393093Y-61126000D01*
X118334907Y-61126000D01*
X117766622Y-61239039D01*
X117284853Y-61560946D01*
X116962946Y-62042715D01*
X116849907Y-62611000D01*
X116026000Y-62611000D01*
X116026000Y-37885000D01*
X136805560Y-37885000D01*
X136805560Y-39585000D01*
X136849838Y-39820317D01*
X136988910Y-40036441D01*
X137201110Y-40181431D01*
X137453000Y-40232440D01*
X139153000Y-40232440D01*
X139388317Y-40188162D01*
X139604441Y-40049090D01*
X139658050Y-39970631D01*
X140037284Y-40276104D01*
X140323005Y-40394435D01*
X140589000Y-40230331D01*
X140589000Y-38989000D01*
X140569000Y-38989000D01*
X140569000Y-38481000D01*
X140589000Y-38481000D01*
X140589000Y-37239669D01*
X141097000Y-37239669D01*
X141097000Y-38481000D01*
X141117000Y-38481000D01*
X141117000Y-38989000D01*
X141097000Y-38989000D01*
X141097000Y-40230331D01*
X141362995Y-40394435D01*
X141648716Y-40276104D01*
X142177139Y-39850460D01*
X142258141Y-39702192D01*
X142332946Y-39814147D01*
X142814715Y-40136054D01*
X143383000Y-40249093D01*
X143951285Y-40136054D01*
X144433054Y-39814147D01*
X144754961Y-39332378D01*
X144868000Y-38764093D01*
X144868000Y-38705907D01*
X144754961Y-38137622D01*
X144433054Y-37655853D01*
X143951285Y-37333946D01*
X143383000Y-37220907D01*
X142814715Y-37333946D01*
X142332946Y-37655853D01*
X142258141Y-37767808D01*
X142177139Y-37619540D01*
X141648716Y-37193896D01*
X141362995Y-37075565D01*
X141097000Y-37239669D01*
X140589000Y-37239669D01*
X140323005Y-37075565D01*
X140037284Y-37193896D01*
X139658964Y-37498633D01*
X139617090Y-37433559D01*
X139404890Y-37288569D01*
X139153000Y-37237560D01*
X137453000Y-37237560D01*
X137217683Y-37281838D01*
X137001559Y-37420910D01*
X136856569Y-37633110D01*
X136805560Y-37885000D01*
X116026000Y-37885000D01*
X116026000Y-33059000D01*
X154839560Y-33059000D01*
X154839560Y-34759000D01*
X154883838Y-34994317D01*
X155022910Y-35210441D01*
X155235110Y-35355431D01*
X155487000Y-35406440D01*
X156086560Y-35406440D01*
X156111867Y-35423350D01*
X156402500Y-35481160D01*
X156693133Y-35423350D01*
X156718440Y-35406440D01*
X157187000Y-35406440D01*
X157422317Y-35362162D01*
X157638441Y-35223090D01*
X157783431Y-35010890D01*
X157834440Y-34759000D01*
X157834440Y-33071700D01*
X160897460Y-33071700D01*
X160897460Y-34771700D01*
X160941738Y-35007017D01*
X161080810Y-35223141D01*
X161293010Y-35368131D01*
X161544900Y-35419140D01*
X163244900Y-35419140D01*
X163480217Y-35374862D01*
X163696341Y-35235790D01*
X163841331Y-35023590D01*
X163892340Y-34771700D01*
X163892340Y-33071700D01*
X163848062Y-32836383D01*
X163708990Y-32620259D01*
X163496790Y-32475269D01*
X163244900Y-32424260D01*
X161544900Y-32424260D01*
X161309583Y-32468538D01*
X161093459Y-32607610D01*
X160948469Y-32819810D01*
X160897460Y-33071700D01*
X157834440Y-33071700D01*
X157834440Y-33059000D01*
X157790162Y-32823683D01*
X157651090Y-32607559D01*
X157438890Y-32462569D01*
X157187000Y-32411560D01*
X155487000Y-32411560D01*
X155251683Y-32455838D01*
X155035559Y-32594910D01*
X154890569Y-32807110D01*
X154839560Y-33059000D01*
X116026000Y-33059000D01*
X116026000Y-29055005D01*
X116185815Y-29294185D01*
X117141589Y-29932812D01*
X118269000Y-30157068D01*
X119396411Y-29932812D01*
X120352185Y-29294185D01*
X120636952Y-28868000D01*
X154839560Y-28868000D01*
X154839560Y-30568000D01*
X154883838Y-30803317D01*
X155022910Y-31019441D01*
X155235110Y-31164431D01*
X155487000Y-31215440D01*
X157187000Y-31215440D01*
X157422317Y-31171162D01*
X157638441Y-31032090D01*
X157783431Y-30819890D01*
X157834440Y-30568000D01*
X157834440Y-28868000D01*
X157822492Y-28804500D01*
X160897460Y-28804500D01*
X160897460Y-30504500D01*
X160941738Y-30739817D01*
X161080810Y-30955941D01*
X161293010Y-31100931D01*
X161544900Y-31151940D01*
X163244900Y-31151940D01*
X163480217Y-31107662D01*
X163696341Y-30968590D01*
X163841331Y-30756390D01*
X163892340Y-30504500D01*
X163892340Y-28804500D01*
X163848062Y-28569183D01*
X163708990Y-28353059D01*
X163496790Y-28208069D01*
X163244900Y-28157060D01*
X161544900Y-28157060D01*
X161309583Y-28201338D01*
X161093459Y-28340410D01*
X160948469Y-28552610D01*
X160897460Y-28804500D01*
X157822492Y-28804500D01*
X157790162Y-28632683D01*
X157651090Y-28416559D01*
X157438890Y-28271569D01*
X157187000Y-28220560D01*
X155487000Y-28220560D01*
X155251683Y-28264838D01*
X155035559Y-28403910D01*
X154890569Y-28616110D01*
X154839560Y-28868000D01*
X120636952Y-28868000D01*
X120990812Y-28338411D01*
X121215068Y-27211000D01*
X120990812Y-26083589D01*
X120352185Y-25127815D01*
X120301577Y-25094000D01*
X170733551Y-25094000D01*
X170157188Y-25956589D01*
X170157188Y-25956589D01*
G37*
X170157188Y-25956589D02*
X169932932Y-27084000D01*
X170157188Y-28211411D01*
X170795815Y-29167185D01*
X171751589Y-29805812D01*
X172879000Y-30030068D01*
X174006411Y-29805812D01*
X174962185Y-29167185D01*
X175600812Y-28211411D01*
X175825068Y-27084000D01*
X175600812Y-25956589D01*
X175024449Y-25094000D01*
X181610000Y-25094000D01*
X181610000Y-42238394D01*
X178255394Y-45593000D01*
X171704000Y-45593000D01*
X171654590Y-45603006D01*
X171614197Y-45630197D01*
X170459400Y-46784994D01*
X170459400Y-41265846D01*
X175288044Y-36437202D01*
X175331085Y-36437240D01*
X175840315Y-36226831D01*
X176230261Y-35837564D01*
X176441559Y-35328702D01*
X176442040Y-34777715D01*
X176231631Y-34268485D01*
X175842364Y-33878539D01*
X175333502Y-33667241D01*
X174782515Y-33666760D01*
X174273285Y-33877169D01*
X173883339Y-34266436D01*
X173672041Y-34775298D01*
X173672002Y-34820352D01*
X168508177Y-39984177D01*
X168260406Y-40354993D01*
X168173400Y-40792400D01*
X168173400Y-55039994D01*
X167894000Y-55319394D01*
X167894000Y-35740972D01*
X167924461Y-35710564D01*
X168135759Y-35201702D01*
X168136240Y-34650715D01*
X167925831Y-34141485D01*
X167536564Y-33751539D01*
X167027702Y-33540241D01*
X166476715Y-33539760D01*
X165967485Y-33750169D01*
X165577539Y-34139436D01*
X165366241Y-34648298D01*
X165365760Y-35199285D01*
X165576169Y-35708515D01*
X165608000Y-35740402D01*
X165608000Y-73846061D01*
X163928123Y-75459358D01*
X163777243Y-75094200D01*
X163508928Y-74825417D01*
X163595317Y-74809162D01*
X163811441Y-74670090D01*
X163956431Y-74457890D01*
X164007440Y-74206000D01*
X164007440Y-72606000D01*
X163963162Y-72370683D01*
X163824090Y-72154559D01*
X163611890Y-72009569D01*
X163360000Y-71958560D01*
X161760000Y-71958560D01*
X161524683Y-72002838D01*
X161308559Y-72141910D01*
X161163569Y-72354110D01*
X161112560Y-72606000D01*
X161112560Y-74206000D01*
X161156838Y-74441317D01*
X161295910Y-74657441D01*
X161508110Y-74802431D01*
X161613041Y-74823680D01*
X161344176Y-75092077D01*
X161125250Y-75619309D01*
X161124752Y-76190187D01*
X161342757Y-76717800D01*
X161746077Y-77121824D01*
X161864499Y-77170997D01*
X161801885Y-77196869D01*
X161411939Y-77586136D01*
X161200641Y-78094998D01*
X161200160Y-78645985D01*
X161410569Y-79155215D01*
X161799836Y-79545161D01*
X162157326Y-79693604D01*
X161991715Y-79726546D01*
X161509946Y-80048453D01*
X161435141Y-80160408D01*
X161354139Y-80012140D01*
X160825716Y-79586496D01*
X160539995Y-79468165D01*
X160274000Y-79632269D01*
X160274000Y-80873600D01*
X160294000Y-80873600D01*
X160294000Y-81381600D01*
X160274000Y-81381600D01*
X160274000Y-82622931D01*
X160539995Y-82787035D01*
X160825716Y-82668704D01*
X161354139Y-82243060D01*
X161435141Y-82094792D01*
X161509946Y-82206747D01*
X161991715Y-82528654D01*
X162560000Y-82641693D01*
X163128285Y-82528654D01*
X163610054Y-82206747D01*
X163637850Y-82165148D01*
X163646838Y-82212917D01*
X163785910Y-82429041D01*
X163998110Y-82574031D01*
X164250000Y-82625040D01*
X165950000Y-82625040D01*
X166185317Y-82580762D01*
X166401441Y-82441690D01*
X166546431Y-82229490D01*
X166597440Y-81977600D01*
X166597440Y-81672998D01*
X168799948Y-81672998D01*
X169125261Y-82268460D01*
X169653684Y-82694104D01*
X169939405Y-82812435D01*
X170205400Y-82648331D01*
X170205400Y-81407000D01*
X168961283Y-81407000D01*
X168799948Y-81672998D01*
X166597440Y-81672998D01*
X166597440Y-80633002D01*
X168799948Y-80633002D01*
X168961283Y-80899000D01*
X170205400Y-80899000D01*
X170205400Y-79657669D01*
X169939405Y-79493565D01*
X169653684Y-79611896D01*
X169125261Y-80037540D01*
X168799948Y-80633002D01*
X166597440Y-80633002D01*
X166597440Y-80277600D01*
X166553162Y-80042283D01*
X166414090Y-79826159D01*
X166201890Y-79681169D01*
X165950000Y-79630160D01*
X164250000Y-79630160D01*
X164014683Y-79674438D01*
X163798559Y-79813510D01*
X163653569Y-80025710D01*
X163639914Y-80093141D01*
X163610054Y-80048453D01*
X163128285Y-79726546D01*
X162996626Y-79700357D01*
X163368915Y-79546531D01*
X163758861Y-79157264D01*
X163970159Y-78648402D01*
X163970211Y-78588411D01*
X167542721Y-75157495D01*
X167549449Y-75147854D01*
X167559223Y-75141323D01*
X167676808Y-74965345D01*
X167797937Y-74791763D01*
X167800463Y-74780281D01*
X167806994Y-74770507D01*
X167848282Y-74562937D01*
X167893767Y-74356204D01*
X167891707Y-74344629D01*
X167894000Y-74333100D01*
X167894000Y-66092606D01*
X168211690Y-66410296D01*
X168260406Y-66655207D01*
X168508177Y-67026023D01*
X172135800Y-70653646D01*
X172135800Y-72242689D01*
X172079090Y-72154559D01*
X171866890Y-72009569D01*
X171615000Y-71958560D01*
X170015000Y-71958560D01*
X169779683Y-72002838D01*
X169563559Y-72141910D01*
X169418569Y-72354110D01*
X169367560Y-72606000D01*
X169367560Y-74206000D01*
X169411838Y-74441317D01*
X169550910Y-74657441D01*
X169763110Y-74802431D01*
X169868041Y-74823680D01*
X169599176Y-75092077D01*
X169380250Y-75619309D01*
X169379752Y-76190187D01*
X169597757Y-76717800D01*
X170001077Y-77121824D01*
X170528309Y-77340750D01*
X171099187Y-77341248D01*
X171626800Y-77123243D01*
X172030824Y-76719923D01*
X172135800Y-76467113D01*
X172135800Y-77930598D01*
X172046441Y-78145798D01*
X172045960Y-78696785D01*
X172256369Y-79206015D01*
X172645636Y-79595961D01*
X172830142Y-79672575D01*
X172431115Y-79751946D01*
X171949346Y-80073853D01*
X171874541Y-80185808D01*
X171793539Y-80037540D01*
X171265116Y-79611896D01*
X170979395Y-79493565D01*
X170713400Y-79657669D01*
X170713400Y-80899000D01*
X170733400Y-80899000D01*
X170733400Y-81407000D01*
X170713400Y-81407000D01*
X170713400Y-82648331D01*
X170979395Y-82812435D01*
X171265116Y-82694104D01*
X171793539Y-82268460D01*
X171874541Y-82120192D01*
X171949346Y-82232147D01*
X172431115Y-82554054D01*
X172999400Y-82667093D01*
X173567685Y-82554054D01*
X174049454Y-82232147D01*
X174077250Y-82190548D01*
X174086238Y-82238317D01*
X174225310Y-82454441D01*
X174437510Y-82599431D01*
X174689400Y-82650440D01*
X176389400Y-82650440D01*
X176624717Y-82606162D01*
X176840841Y-82467090D01*
X176911000Y-82364409D01*
X176911000Y-83566000D01*
X176921006Y-83615410D01*
X176948197Y-83655803D01*
X183134000Y-89841606D01*
X183134000Y-101005004D01*
X183046469Y-101133110D01*
X182995460Y-101385000D01*
X182995460Y-103085000D01*
X183039738Y-103320317D01*
X183134000Y-103466804D01*
X183134000Y-114173000D01*
X183144006Y-114222410D01*
X183172447Y-114264035D01*
X183214841Y-114291315D01*
X183261000Y-114300000D01*
X183896000Y-114300000D01*
X183945410Y-114289994D01*
X183985803Y-114262803D01*
X186525803Y-111722803D01*
X186553666Y-111680789D01*
X186563000Y-111633000D01*
X186563000Y-87757000D01*
X186552994Y-87707590D01*
X186525803Y-87667197D01*
X181531157Y-82672551D01*
X181547400Y-82675840D01*
X183247400Y-82675840D01*
X183482717Y-82631562D01*
X183698841Y-82492490D01*
X183843831Y-82280290D01*
X183857486Y-82212859D01*
X183887346Y-82257547D01*
X184369115Y-82579454D01*
X184937400Y-82692493D01*
X185505685Y-82579454D01*
X185987454Y-82257547D01*
X186062259Y-82145592D01*
X186143261Y-82293860D01*
X186671684Y-82719504D01*
X186957405Y-82837835D01*
X187223400Y-82673731D01*
X187223400Y-81432400D01*
X187731400Y-81432400D01*
X187731400Y-82673731D01*
X187997395Y-82837835D01*
X188283116Y-82719504D01*
X188461287Y-82575987D01*
X200866223Y-82575987D01*
X200970086Y-82906339D01*
X201714129Y-83140218D01*
X202491036Y-83071560D01*
X202889914Y-82906339D01*
X202993777Y-82575987D01*
X201930000Y-81512210D01*
X200866223Y-82575987D01*
X188461287Y-82575987D01*
X188811539Y-82293860D01*
X189136852Y-81698398D01*
X188975517Y-81432400D01*
X187731400Y-81432400D01*
X187223400Y-81432400D01*
X187203400Y-81432400D01*
X187203400Y-80937129D01*
X199942782Y-80937129D01*
X200011440Y-81714036D01*
X200176661Y-82112914D01*
X200507013Y-82216777D01*
X201570790Y-81153000D01*
X202289210Y-81153000D01*
X203352987Y-82216777D01*
X203683339Y-82112914D01*
X203917218Y-81368871D01*
X203848560Y-80591964D01*
X203683339Y-80193086D01*
X203352987Y-80089223D01*
X202289210Y-81153000D01*
X201570790Y-81153000D01*
X200507013Y-80089223D01*
X200176661Y-80193086D01*
X199942782Y-80937129D01*
X187203400Y-80937129D01*
X187203400Y-80924400D01*
X187223400Y-80924400D01*
X187223400Y-79683069D01*
X187731400Y-79683069D01*
X187731400Y-80924400D01*
X188975517Y-80924400D01*
X189136852Y-80658402D01*
X188811539Y-80062940D01*
X188398222Y-79730013D01*
X200866223Y-79730013D01*
X201930000Y-80793790D01*
X202993777Y-79730013D01*
X202889914Y-79399661D01*
X202145871Y-79165782D01*
X201368964Y-79234440D01*
X200970086Y-79399661D01*
X200866223Y-79730013D01*
X188398222Y-79730013D01*
X188283116Y-79637296D01*
X187997395Y-79518965D01*
X187731400Y-79683069D01*
X187223400Y-79683069D01*
X186957405Y-79518965D01*
X186671684Y-79637296D01*
X186143261Y-80062940D01*
X186062259Y-80211208D01*
X185987454Y-80099253D01*
X185505685Y-79777346D01*
X184937400Y-79664307D01*
X184369115Y-79777346D01*
X183887346Y-80099253D01*
X183859550Y-80140852D01*
X183850562Y-80093083D01*
X183711490Y-79876959D01*
X183499290Y-79731969D01*
X183247400Y-79680960D01*
X181547400Y-79680960D01*
X181312083Y-79725238D01*
X181095959Y-79864310D01*
X180950969Y-80076510D01*
X180899960Y-80328400D01*
X180899960Y-82028400D01*
X180902962Y-82044356D01*
X180721000Y-81862394D01*
X180721000Y-75692000D01*
X180710994Y-75642590D01*
X180683803Y-75602197D01*
X180431606Y-75350000D01*
X180874560Y-75350000D01*
X180874560Y-77050000D01*
X180918838Y-77285317D01*
X181057910Y-77501441D01*
X181270110Y-77646431D01*
X181522000Y-77697440D01*
X183222000Y-77697440D01*
X183457317Y-77653162D01*
X183673441Y-77514090D01*
X183818431Y-77301890D01*
X183832086Y-77234459D01*
X183861946Y-77279147D01*
X184343715Y-77601054D01*
X184912000Y-77714093D01*
X185480285Y-77601054D01*
X185962054Y-77279147D01*
X186036859Y-77167192D01*
X186117861Y-77315460D01*
X186646284Y-77741104D01*
X186932005Y-77859435D01*
X187198000Y-77695331D01*
X187198000Y-76454000D01*
X187706000Y-76454000D01*
X187706000Y-77695331D01*
X187971995Y-77859435D01*
X188257716Y-77741104D01*
X188786139Y-77315460D01*
X189111452Y-76719998D01*
X189007889Y-76549250D01*
X190920000Y-76549250D01*
X190920000Y-77099833D01*
X191055342Y-77426578D01*
X191305422Y-77676658D01*
X191632167Y-77812000D01*
X192182750Y-77812000D01*
X192405000Y-77589750D01*
X192405000Y-76327000D01*
X192913000Y-76327000D01*
X192913000Y-77589750D01*
X193135250Y-77812000D01*
X193685833Y-77812000D01*
X194012578Y-77676658D01*
X194262658Y-77426578D01*
X194398000Y-77099833D01*
X194398000Y-76549250D01*
X194175750Y-76327000D01*
X192913000Y-76327000D01*
X192405000Y-76327000D01*
X191142250Y-76327000D01*
X190920000Y-76549250D01*
X189007889Y-76549250D01*
X188950117Y-76454000D01*
X187706000Y-76454000D01*
X187198000Y-76454000D01*
X187178000Y-76454000D01*
X187178000Y-75946000D01*
X187198000Y-75946000D01*
X187198000Y-74704669D01*
X187706000Y-74704669D01*
X187706000Y-75946000D01*
X188950117Y-75946000D01*
X189111452Y-75680002D01*
X188786139Y-75084540D01*
X188738501Y-75046167D01*
X190920000Y-75046167D01*
X190920000Y-75596750D01*
X191142250Y-75819000D01*
X192405000Y-75819000D01*
X192405000Y-75799000D01*
X192913000Y-75799000D01*
X192913000Y-75819000D01*
X194175750Y-75819000D01*
X194398000Y-75596750D01*
X194398000Y-75046167D01*
X194262658Y-74719422D01*
X194012578Y-74469342D01*
X193857145Y-74404960D01*
X194060054Y-74101285D01*
X194173093Y-73533000D01*
X194060054Y-72964715D01*
X193738147Y-72482946D01*
X193256378Y-72161039D01*
X192688093Y-72048000D01*
X192629907Y-72048000D01*
X192061622Y-72161039D01*
X191579853Y-72482946D01*
X191257946Y-72964715D01*
X191144907Y-73533000D01*
X191257946Y-74101285D01*
X191460855Y-74404960D01*
X191305422Y-74469342D01*
X191055342Y-74719422D01*
X190920000Y-75046167D01*
X188738501Y-75046167D01*
X188257716Y-74658896D01*
X187971995Y-74540565D01*
X187706000Y-74704669D01*
X187198000Y-74704669D01*
X186932005Y-74540565D01*
X186646284Y-74658896D01*
X186117861Y-75084540D01*
X186036859Y-75232808D01*
X185962054Y-75120853D01*
X185480285Y-74798946D01*
X184912000Y-74685907D01*
X184343715Y-74798946D01*
X183861946Y-75120853D01*
X183834150Y-75162452D01*
X183825162Y-75114683D01*
X183686090Y-74898559D01*
X183473890Y-74753569D01*
X183222000Y-74702560D01*
X181522000Y-74702560D01*
X181286683Y-74746838D01*
X181070559Y-74885910D01*
X180925569Y-75098110D01*
X180874560Y-75350000D01*
X180431606Y-75350000D01*
X172974000Y-67892394D01*
X172974000Y-61627985D01*
X181075660Y-61627985D01*
X181286069Y-62137215D01*
X181675336Y-62527161D01*
X182184198Y-62738459D01*
X182581570Y-62738806D01*
X186055000Y-66212236D01*
X186055000Y-69863470D01*
X185770539Y-70147436D01*
X185559241Y-70656298D01*
X185558760Y-71207285D01*
X185769169Y-71716515D01*
X186158436Y-72106461D01*
X186667298Y-72317759D01*
X187218285Y-72318240D01*
X187727515Y-72107831D01*
X188117461Y-71718564D01*
X188328759Y-71209702D01*
X188329240Y-70658715D01*
X188118831Y-70149485D01*
X187833000Y-69863155D01*
X187833000Y-65844000D01*
X187765329Y-65503794D01*
X187572618Y-65215382D01*
X183845783Y-61488547D01*
X183846140Y-61079415D01*
X183635731Y-60570185D01*
X183246464Y-60180239D01*
X182737602Y-59968941D01*
X182186615Y-59968460D01*
X181677385Y-60178869D01*
X181287439Y-60568136D01*
X181076141Y-61076998D01*
X181075660Y-61627985D01*
X172974000Y-61627985D01*
X172974000Y-57912000D01*
X172963994Y-57862590D01*
X172936803Y-57822197D01*
X170942000Y-55827394D01*
X170942000Y-55499000D01*
X191144907Y-55499000D01*
X191257946Y-56067285D01*
X191579853Y-56549054D01*
X191909026Y-56769000D01*
X191579853Y-56988946D01*
X191257946Y-57470715D01*
X191144907Y-58039000D01*
X191257946Y-58607285D01*
X191579853Y-59089054D01*
X191909026Y-59309000D01*
X191579853Y-59528946D01*
X191257946Y-60010715D01*
X191144907Y-60579000D01*
X191257946Y-61147285D01*
X191579853Y-61629054D01*
X191909026Y-61849000D01*
X191579853Y-62068946D01*
X191257946Y-62550715D01*
X191144907Y-63119000D01*
X191257946Y-63687285D01*
X191579853Y-64169054D01*
X191909026Y-64389000D01*
X191579853Y-64608946D01*
X191257946Y-65090715D01*
X191144907Y-65659000D01*
X191257946Y-66227285D01*
X191579853Y-66709054D01*
X191909026Y-66929000D01*
X191579853Y-67148946D01*
X191257946Y-67630715D01*
X191144907Y-68199000D01*
X191257946Y-68767285D01*
X191579853Y-69249054D01*
X192061622Y-69570961D01*
X192629907Y-69684000D01*
X192688093Y-69684000D01*
X193256378Y-69570961D01*
X193738147Y-69249054D01*
X194060054Y-68767285D01*
X194173093Y-68199000D01*
X194060054Y-67630715D01*
X193738147Y-67148946D01*
X193408974Y-66929000D01*
X193738147Y-66709054D01*
X194060054Y-66227285D01*
X194173093Y-65659000D01*
X194060054Y-65090715D01*
X193738147Y-64608946D01*
X193408974Y-64389000D01*
X193738147Y-64169054D01*
X194060054Y-63687285D01*
X194173093Y-63119000D01*
X194060054Y-62550715D01*
X193738147Y-62068946D01*
X193408974Y-61849000D01*
X193738147Y-61629054D01*
X194060054Y-61147285D01*
X194173093Y-60579000D01*
X194060054Y-60010715D01*
X193738147Y-59528946D01*
X193408974Y-59309000D01*
X193738147Y-59089054D01*
X194060054Y-58607285D01*
X194173093Y-58039000D01*
X194060054Y-57470715D01*
X193738147Y-56988946D01*
X193408974Y-56769000D01*
X193738147Y-56549054D01*
X194060054Y-56067285D01*
X194173093Y-55499000D01*
X194060054Y-54930715D01*
X193738147Y-54448946D01*
X193696548Y-54421150D01*
X193744317Y-54412162D01*
X193960441Y-54273090D01*
X194105431Y-54060890D01*
X194156440Y-53809000D01*
X194156440Y-52109000D01*
X194112162Y-51873683D01*
X193973090Y-51657559D01*
X193760890Y-51512569D01*
X193509000Y-51461560D01*
X191809000Y-51461560D01*
X191573683Y-51505838D01*
X191357559Y-51644910D01*
X191212569Y-51857110D01*
X191161560Y-52109000D01*
X191161560Y-53809000D01*
X191205838Y-54044317D01*
X191344910Y-54260441D01*
X191557110Y-54405431D01*
X191624541Y-54419086D01*
X191579853Y-54448946D01*
X191257946Y-54930715D01*
X191144907Y-55499000D01*
X170942000Y-55499000D01*
X170942000Y-48566606D01*
X172518606Y-46990000D01*
X179705000Y-46990000D01*
X179754410Y-46979994D01*
X179794803Y-46952803D01*
X183604803Y-43142803D01*
X183632666Y-43100789D01*
X183642000Y-43053000D01*
X183642000Y-32909500D01*
X201905072Y-32909500D01*
X201905072Y-32373067D01*
X204597000Y-32373067D01*
X204597038Y-32373059D01*
X204597077Y-32373067D01*
X204717330Y-32349132D01*
X204841917Y-32324350D01*
X204841951Y-32324327D01*
X204841988Y-32324320D01*
X204943442Y-32256513D01*
X205030000Y-32198677D01*
X205030000Y-38225212D01*
X204934185Y-38081815D01*
X203978411Y-37443188D01*
X202851000Y-37218932D01*
X201723589Y-37443188D01*
X200767815Y-38081815D01*
X200129188Y-39037589D01*
X199904932Y-40165000D01*
X200129188Y-41292411D01*
X200767815Y-42248185D01*
X201723589Y-42886812D01*
X202851000Y-43111068D01*
X203978411Y-42886812D01*
X204934185Y-42248185D01*
X205030000Y-42104788D01*
X205030000Y-115885282D01*
X204807185Y-115551815D01*
X203851411Y-114913188D01*
X202724000Y-114688932D01*
X201596589Y-114913188D01*
X200640815Y-115551815D01*
X200002188Y-116507589D01*
X199777932Y-117635000D01*
X200002188Y-118762411D01*
X200640815Y-119718185D01*
X201162854Y-120067000D01*
X119957146Y-120067000D01*
X120479185Y-119718185D01*
X121117812Y-118762411D01*
X121342068Y-117635000D01*
X121221686Y-117029798D01*
X168926948Y-117029798D01*
X169252261Y-117625260D01*
X169780684Y-118050904D01*
X170066405Y-118169235D01*
X170332400Y-118005131D01*
X170332400Y-116763800D01*
X169088283Y-116763800D01*
X168926948Y-117029798D01*
X121221686Y-117029798D01*
X121117812Y-116507589D01*
X120479185Y-115551815D01*
X119523411Y-114913188D01*
X118396000Y-114688932D01*
X117268589Y-114913188D01*
X116312815Y-115551815D01*
X116026000Y-115981064D01*
X116026000Y-94640987D01*
X119903723Y-94640987D01*
X120007586Y-94971339D01*
X120751629Y-95205218D01*
X121528536Y-95136560D01*
X121927414Y-94971339D01*
X122031277Y-94640987D01*
X120967500Y-93577210D01*
X119903723Y-94640987D01*
X116026000Y-94640987D01*
X116026000Y-93002129D01*
X118980282Y-93002129D01*
X119048940Y-93779036D01*
X119214161Y-94177914D01*
X119544513Y-94281777D01*
X120608290Y-93218000D01*
X121326710Y-93218000D01*
X122390487Y-94281777D01*
X122720839Y-94177914D01*
X122954718Y-93433871D01*
X122886060Y-92656964D01*
X122720839Y-92258086D01*
X122390487Y-92154223D01*
X121326710Y-93218000D01*
X120608290Y-93218000D01*
X119544513Y-92154223D01*
X119214161Y-92258086D01*
X118980282Y-93002129D01*
X116026000Y-93002129D01*
X116026000Y-91795013D01*
X119903723Y-91795013D01*
X120967500Y-92858790D01*
X122031277Y-91795013D01*
X121927414Y-91464661D01*
X121183371Y-91230782D01*
X120406464Y-91299440D01*
X120007586Y-91464661D01*
X119903723Y-91795013D01*
X116026000Y-91795013D01*
X116026000Y-62611000D01*
X116849907Y-62611000D01*
X116962946Y-63179285D01*
X117284853Y-63661054D01*
X117614026Y-63881000D01*
X117284853Y-64100946D01*
X116962946Y-64582715D01*
X116849907Y-65151000D01*
X116962946Y-65719285D01*
X117284853Y-66201054D01*
X117614026Y-66421000D01*
X117284853Y-66640946D01*
X116962946Y-67122715D01*
X116849907Y-67691000D01*
X116962946Y-68259285D01*
X117284853Y-68741054D01*
X117614026Y-68961000D01*
X117284853Y-69180946D01*
X116962946Y-69662715D01*
X116849907Y-70231000D01*
X116962946Y-70799285D01*
X117284853Y-71281054D01*
X117614026Y-71501000D01*
X117284853Y-71720946D01*
X116962946Y-72202715D01*
X116849907Y-72771000D01*
X116962946Y-73339285D01*
X117284853Y-73821054D01*
X117614026Y-74041000D01*
X117284853Y-74260946D01*
X116962946Y-74742715D01*
X116849907Y-75311000D01*
X116962946Y-75879285D01*
X117284853Y-76361054D01*
X117614026Y-76581000D01*
X117284853Y-76800946D01*
X116962946Y-77282715D01*
X116849907Y-77851000D01*
X116962946Y-78419285D01*
X117284853Y-78901054D01*
X117614026Y-79121000D01*
X117284853Y-79340946D01*
X116962946Y-79822715D01*
X116849907Y-80391000D01*
X116962946Y-80959285D01*
X117284853Y-81441054D01*
X117614026Y-81661000D01*
X117284853Y-81880946D01*
X116962946Y-82362715D01*
X116849907Y-82931000D01*
X116962946Y-83499285D01*
X117284853Y-83981054D01*
X117614026Y-84201000D01*
X117284853Y-84420946D01*
X116962946Y-84902715D01*
X116849907Y-85471000D01*
X116962946Y-86039285D01*
X117284853Y-86521054D01*
X117766622Y-86842961D01*
X118334907Y-86956000D01*
X118393093Y-86956000D01*
X118961378Y-86842961D01*
X119443147Y-86521054D01*
X119495998Y-86441957D01*
X119788540Y-86805139D01*
X120384002Y-87130452D01*
X120650000Y-86969117D01*
X120650000Y-85725000D01*
X121158000Y-85725000D01*
X121158000Y-86969117D01*
X121423998Y-87130452D01*
X122019460Y-86805139D01*
X122445104Y-86276716D01*
X122563435Y-85990995D01*
X122399331Y-85725000D01*
X121158000Y-85725000D01*
X120650000Y-85725000D01*
X120630000Y-85725000D01*
X120630000Y-85217000D01*
X120650000Y-85217000D01*
X120650000Y-85197000D01*
X121158000Y-85197000D01*
X121158000Y-85217000D01*
X122399331Y-85217000D01*
X122563435Y-84951005D01*
X122445104Y-84665284D01*
X122158924Y-84310000D01*
X129394000Y-84310000D01*
X129394000Y-92113160D01*
X129438422Y-92336485D01*
X129471338Y-92501967D01*
X129691580Y-92831580D01*
X129971580Y-93111580D01*
X129691580Y-93391580D01*
X129471338Y-93721193D01*
X129471338Y-93721194D01*
X129394000Y-94110000D01*
X129394000Y-103413160D01*
X129438422Y-103636485D01*
X129471338Y-103801967D01*
X129691580Y-104131580D01*
X129980000Y-104420000D01*
X129698420Y-104701580D01*
X129478178Y-105031193D01*
X129478178Y-105031194D01*
X129400840Y-105420000D01*
X129400840Y-114003160D01*
X129452230Y-114261514D01*
X129478178Y-114391967D01*
X129686647Y-114703961D01*
X129679241Y-114721798D01*
X129678760Y-115272785D01*
X129889169Y-115782015D01*
X130278436Y-116171961D01*
X130787298Y-116383259D01*
X131338285Y-116383740D01*
X131847515Y-116173331D01*
X132031364Y-115989802D01*
X168926948Y-115989802D01*
X169088283Y-116255800D01*
X170332400Y-116255800D01*
X170332400Y-115014469D01*
X170840400Y-115014469D01*
X170840400Y-116255800D01*
X170860400Y-116255800D01*
X170860400Y-116763800D01*
X170840400Y-116763800D01*
X170840400Y-118005131D01*
X171106395Y-118169235D01*
X171392116Y-118050904D01*
X171770436Y-117746167D01*
X171812310Y-117811241D01*
X172024510Y-117956231D01*
X172276400Y-118007240D01*
X173976400Y-118007240D01*
X174211717Y-117962962D01*
X174427841Y-117823890D01*
X174572831Y-117611690D01*
X174623840Y-117359800D01*
X174623840Y-117029798D01*
X180433148Y-117029798D01*
X180758461Y-117625260D01*
X181286884Y-118050904D01*
X181572605Y-118169235D01*
X181838600Y-118005131D01*
X181838600Y-116763800D01*
X180594483Y-116763800D01*
X180433148Y-117029798D01*
X174623840Y-117029798D01*
X174623840Y-115989802D01*
X180433148Y-115989802D01*
X180594483Y-116255800D01*
X181838600Y-116255800D01*
X181838600Y-115014469D01*
X182346600Y-115014469D01*
X182346600Y-116255800D01*
X182366600Y-116255800D01*
X182366600Y-116763800D01*
X182346600Y-116763800D01*
X182346600Y-118005131D01*
X182612595Y-118169235D01*
X182898316Y-118050904D01*
X183276636Y-117746167D01*
X183318510Y-117811241D01*
X183530710Y-117956231D01*
X183782600Y-118007240D01*
X185482600Y-118007240D01*
X185717917Y-117962962D01*
X185934041Y-117823890D01*
X186079031Y-117611690D01*
X186130040Y-117359800D01*
X186130040Y-115659800D01*
X186085762Y-115424483D01*
X185946690Y-115208359D01*
X185734490Y-115063369D01*
X185482600Y-115012360D01*
X183782600Y-115012360D01*
X183547283Y-115056638D01*
X183331159Y-115195710D01*
X183277550Y-115274169D01*
X182898316Y-114968696D01*
X182612595Y-114850365D01*
X182346600Y-115014469D01*
X181838600Y-115014469D01*
X181572605Y-114850365D01*
X181286884Y-114968696D01*
X180758461Y-115394340D01*
X180433148Y-115989802D01*
X174623840Y-115989802D01*
X174623840Y-115659800D01*
X174579562Y-115424483D01*
X174440490Y-115208359D01*
X174228290Y-115063369D01*
X173976400Y-115012360D01*
X172276400Y-115012360D01*
X172041083Y-115056638D01*
X171824959Y-115195710D01*
X171771350Y-115274169D01*
X171392116Y-114968696D01*
X171106395Y-114850365D01*
X170840400Y-115014469D01*
X170332400Y-115014469D01*
X170066405Y-114850365D01*
X169780684Y-114968696D01*
X169252261Y-115394340D01*
X168926948Y-115989802D01*
X132031364Y-115989802D01*
X132237461Y-115784064D01*
X132448759Y-115275202D01*
X132449240Y-114724215D01*
X132238831Y-114214985D01*
X131849564Y-113825039D01*
X131552000Y-113701480D01*
X131432840Y-113582320D01*
X131432840Y-113025000D01*
X136769400Y-113025000D01*
X136769400Y-114725000D01*
X136813678Y-114960317D01*
X136952750Y-115176441D01*
X137164950Y-115321431D01*
X137416840Y-115372440D01*
X139116840Y-115372440D01*
X139352157Y-115328162D01*
X139568281Y-115189090D01*
X139621890Y-115110631D01*
X140001124Y-115416104D01*
X140286845Y-115534435D01*
X140552840Y-115370331D01*
X140552840Y-114129000D01*
X140532840Y-114129000D01*
X140532840Y-113621000D01*
X140552840Y-113621000D01*
X140552840Y-112379669D01*
X141060840Y-112379669D01*
X141060840Y-113621000D01*
X141080840Y-113621000D01*
X141080840Y-114129000D01*
X141060840Y-114129000D01*
X141060840Y-115370331D01*
X141326835Y-115534435D01*
X141612556Y-115416104D01*
X142140979Y-114990460D01*
X142221981Y-114842192D01*
X142296786Y-114954147D01*
X142778555Y-115276054D01*
X143346840Y-115389093D01*
X143915125Y-115276054D01*
X144396894Y-114954147D01*
X144718801Y-114472378D01*
X144831840Y-113904093D01*
X144831840Y-113845907D01*
X144718801Y-113277622D01*
X144396894Y-112795853D01*
X143915125Y-112473946D01*
X143346840Y-112360907D01*
X142778555Y-112473946D01*
X142296786Y-112795853D01*
X142221981Y-112907808D01*
X142140979Y-112759540D01*
X141612556Y-112333896D01*
X141326835Y-112215565D01*
X141060840Y-112379669D01*
X140552840Y-112379669D01*
X140286845Y-112215565D01*
X140001124Y-112333896D01*
X139622804Y-112638633D01*
X139580930Y-112573559D01*
X139368730Y-112428569D01*
X139116840Y-112377560D01*
X137416840Y-112377560D01*
X137181523Y-112421838D01*
X136965399Y-112560910D01*
X136820409Y-112773110D01*
X136769400Y-113025000D01*
X131432840Y-113025000D01*
X131432840Y-105840840D01*
X131468635Y-105805046D01*
X131691125Y-105805240D01*
X132200355Y-105594831D01*
X132590301Y-105205564D01*
X132801599Y-104696702D01*
X132802080Y-104145715D01*
X132591671Y-103636485D01*
X132202404Y-103246539D01*
X131693542Y-103035241D01*
X131468725Y-103035045D01*
X131426000Y-102992320D01*
X131426000Y-102465000D01*
X136769400Y-102465000D01*
X136769400Y-104165000D01*
X136813678Y-104400317D01*
X136952750Y-104616441D01*
X137164950Y-104761431D01*
X137416840Y-104812440D01*
X139116840Y-104812440D01*
X139352157Y-104768162D01*
X139568281Y-104629090D01*
X139621890Y-104550631D01*
X140001124Y-104856104D01*
X140286845Y-104974435D01*
X140552840Y-104810331D01*
X140552840Y-103569000D01*
X140532840Y-103569000D01*
X140532840Y-103061000D01*
X140552840Y-103061000D01*
X140552840Y-101819669D01*
X141060840Y-101819669D01*
X141060840Y-103061000D01*
X141080840Y-103061000D01*
X141080840Y-103569000D01*
X141060840Y-103569000D01*
X141060840Y-104810331D01*
X141326835Y-104974435D01*
X141612556Y-104856104D01*
X142140979Y-104430460D01*
X142221981Y-104282192D01*
X142296786Y-104394147D01*
X142778555Y-104716054D01*
X143346840Y-104829093D01*
X143915125Y-104716054D01*
X144396894Y-104394147D01*
X144718801Y-103912378D01*
X144831840Y-103344093D01*
X144831840Y-103285907D01*
X144718801Y-102717622D01*
X144473299Y-102350200D01*
X156198460Y-102350200D01*
X156198460Y-104050200D01*
X156242738Y-104285517D01*
X156381810Y-104501641D01*
X156594010Y-104646631D01*
X156845900Y-104697640D01*
X158545900Y-104697640D01*
X158781217Y-104653362D01*
X158997341Y-104514290D01*
X159142331Y-104302090D01*
X159193340Y-104050200D01*
X159193340Y-102350200D01*
X159149062Y-102114883D01*
X159009990Y-101898759D01*
X158797790Y-101753769D01*
X158545900Y-101702760D01*
X156845900Y-101702760D01*
X156610583Y-101747038D01*
X156394459Y-101886110D01*
X156249469Y-102098310D01*
X156198460Y-102350200D01*
X144473299Y-102350200D01*
X144396894Y-102235853D01*
X143915125Y-101913946D01*
X143346840Y-101800907D01*
X142778555Y-101913946D01*
X142296786Y-102235853D01*
X142221981Y-102347808D01*
X142140979Y-102199540D01*
X141612556Y-101773896D01*
X141326835Y-101655565D01*
X141060840Y-101819669D01*
X140552840Y-101819669D01*
X140286845Y-101655565D01*
X140001124Y-101773896D01*
X139622804Y-102078633D01*
X139580930Y-102013559D01*
X139368730Y-101868569D01*
X139116840Y-101817560D01*
X137416840Y-101817560D01*
X137181523Y-101861838D01*
X136965399Y-102000910D01*
X136820409Y-102213110D01*
X136769400Y-102465000D01*
X131426000Y-102465000D01*
X131426000Y-94530840D01*
X131451809Y-94505031D01*
X131691125Y-94505240D01*
X132200355Y-94294831D01*
X132590301Y-93905564D01*
X132801599Y-93396702D01*
X132802080Y-92845715D01*
X132591671Y-92336485D01*
X132202404Y-91946539D01*
X132102367Y-91905000D01*
X136769400Y-91905000D01*
X136769400Y-93605000D01*
X136813678Y-93840317D01*
X136952750Y-94056441D01*
X137164950Y-94201431D01*
X137416840Y-94252440D01*
X139116840Y-94252440D01*
X139352157Y-94208162D01*
X139568281Y-94069090D01*
X139621890Y-93990631D01*
X140001124Y-94296104D01*
X140286845Y-94414435D01*
X140552840Y-94250331D01*
X140552840Y-93009000D01*
X140532840Y-93009000D01*
X140532840Y-92501000D01*
X140552840Y-92501000D01*
X140552840Y-91259669D01*
X141060840Y-91259669D01*
X141060840Y-92501000D01*
X141080840Y-92501000D01*
X141080840Y-93009000D01*
X141060840Y-93009000D01*
X141060840Y-94250331D01*
X141326835Y-94414435D01*
X141612556Y-94296104D01*
X142140979Y-93870460D01*
X142221981Y-93722192D01*
X142296786Y-93834147D01*
X142778555Y-94156054D01*
X143346840Y-94269093D01*
X143915125Y-94156054D01*
X144396894Y-93834147D01*
X144718801Y-93352378D01*
X144831840Y-92784093D01*
X144831840Y-92725907D01*
X144718801Y-92157622D01*
X144396894Y-91675853D01*
X143915125Y-91353946D01*
X143346840Y-91240907D01*
X142778555Y-91353946D01*
X142296786Y-91675853D01*
X142221981Y-91787808D01*
X142140979Y-91639540D01*
X141612556Y-91213896D01*
X141326835Y-91095565D01*
X141060840Y-91259669D01*
X140552840Y-91259669D01*
X140286845Y-91095565D01*
X140001124Y-91213896D01*
X139622804Y-91518633D01*
X139580930Y-91453559D01*
X139368730Y-91308569D01*
X139116840Y-91257560D01*
X137416840Y-91257560D01*
X137181523Y-91301838D01*
X136965399Y-91440910D01*
X136820409Y-91653110D01*
X136769400Y-91905000D01*
X132102367Y-91905000D01*
X131693542Y-91735241D01*
X131468725Y-91735045D01*
X131426000Y-91692320D01*
X131426000Y-84730840D01*
X131451809Y-84705031D01*
X131691125Y-84705240D01*
X132200355Y-84494831D01*
X132590301Y-84105564D01*
X132801599Y-83596702D01*
X132802080Y-83045715D01*
X132591671Y-82536485D01*
X132202404Y-82146539D01*
X131693542Y-81935241D01*
X131468725Y-81935045D01*
X131432840Y-81899160D01*
X131432840Y-81270000D01*
X136819400Y-81270000D01*
X136819400Y-82970000D01*
X136863678Y-83205317D01*
X137002750Y-83421441D01*
X137214950Y-83566431D01*
X137466840Y-83617440D01*
X139166840Y-83617440D01*
X139402157Y-83573162D01*
X139618281Y-83434090D01*
X139671890Y-83355631D01*
X140051124Y-83661104D01*
X140336845Y-83779435D01*
X140602840Y-83615331D01*
X140602840Y-82374000D01*
X140582840Y-82374000D01*
X140582840Y-81866000D01*
X140602840Y-81866000D01*
X140602840Y-80624669D01*
X141110840Y-80624669D01*
X141110840Y-81866000D01*
X141130840Y-81866000D01*
X141130840Y-82374000D01*
X141110840Y-82374000D01*
X141110840Y-83615331D01*
X141376835Y-83779435D01*
X141662556Y-83661104D01*
X142190979Y-83235460D01*
X142271981Y-83087192D01*
X142346786Y-83199147D01*
X142828555Y-83521054D01*
X143396840Y-83634093D01*
X143965125Y-83521054D01*
X144446894Y-83199147D01*
X144768801Y-82717378D01*
X144881840Y-82149093D01*
X144881840Y-82090907D01*
X144793661Y-81647598D01*
X158360548Y-81647598D01*
X158685861Y-82243060D01*
X159214284Y-82668704D01*
X159500005Y-82787035D01*
X159766000Y-82622931D01*
X159766000Y-81381600D01*
X158521883Y-81381600D01*
X158360548Y-81647598D01*
X144793661Y-81647598D01*
X144768801Y-81522622D01*
X144446894Y-81040853D01*
X143965125Y-80718946D01*
X143405362Y-80607602D01*
X158360548Y-80607602D01*
X158521883Y-80873600D01*
X159766000Y-80873600D01*
X159766000Y-79632269D01*
X159500005Y-79468165D01*
X159214284Y-79586496D01*
X158685861Y-80012140D01*
X158360548Y-80607602D01*
X143405362Y-80607602D01*
X143396840Y-80605907D01*
X142828555Y-80718946D01*
X142346786Y-81040853D01*
X142271981Y-81152808D01*
X142190979Y-81004540D01*
X141662556Y-80578896D01*
X141376835Y-80460565D01*
X141110840Y-80624669D01*
X140602840Y-80624669D01*
X140336845Y-80460565D01*
X140051124Y-80578896D01*
X139672804Y-80883633D01*
X139630930Y-80818559D01*
X139418730Y-80673569D01*
X139166840Y-80622560D01*
X137466840Y-80622560D01*
X137231523Y-80666838D01*
X137015399Y-80805910D01*
X136870409Y-81018110D01*
X136819400Y-81270000D01*
X131432840Y-81270000D01*
X131432840Y-75311000D01*
X155584907Y-75311000D01*
X155697946Y-75879285D01*
X156019853Y-76361054D01*
X156501622Y-76682961D01*
X157069907Y-76796000D01*
X157128093Y-76796000D01*
X157696378Y-76682961D01*
X158178147Y-76361054D01*
X158500054Y-75879285D01*
X158613093Y-75311000D01*
X158500054Y-74742715D01*
X158178147Y-74260946D01*
X158136548Y-74233150D01*
X158184317Y-74224162D01*
X158400441Y-74085090D01*
X158545431Y-73872890D01*
X158596440Y-73621000D01*
X158596440Y-71921000D01*
X158552162Y-71685683D01*
X158413090Y-71469559D01*
X158200890Y-71324569D01*
X157949000Y-71273560D01*
X156249000Y-71273560D01*
X156013683Y-71317838D01*
X155797559Y-71456910D01*
X155652569Y-71669110D01*
X155601560Y-71921000D01*
X155601560Y-73621000D01*
X155645838Y-73856317D01*
X155784910Y-74072441D01*
X155997110Y-74217431D01*
X156064541Y-74231086D01*
X156019853Y-74260946D01*
X155697946Y-74742715D01*
X155584907Y-75311000D01*
X131432840Y-75311000D01*
X131432840Y-74040840D01*
X131668635Y-73805046D01*
X131891125Y-73805240D01*
X132400355Y-73594831D01*
X132790301Y-73205564D01*
X133001599Y-72696702D01*
X133002080Y-72145715D01*
X132791671Y-71636485D01*
X132402404Y-71246539D01*
X131893542Y-71035241D01*
X131685580Y-71035059D01*
X131432840Y-70782320D01*
X131432840Y-70315000D01*
X136769400Y-70315000D01*
X136769400Y-72015000D01*
X136813678Y-72250317D01*
X136952750Y-72466441D01*
X137164950Y-72611431D01*
X137416840Y-72662440D01*
X139116840Y-72662440D01*
X139352157Y-72618162D01*
X139568281Y-72479090D01*
X139621890Y-72400631D01*
X140001124Y-72706104D01*
X140286845Y-72824435D01*
X140552840Y-72660331D01*
X140552840Y-71419000D01*
X140532840Y-71419000D01*
X140532840Y-70911000D01*
X140552840Y-70911000D01*
X140552840Y-69669669D01*
X141060840Y-69669669D01*
X141060840Y-70911000D01*
X141080840Y-70911000D01*
X141080840Y-71419000D01*
X141060840Y-71419000D01*
X141060840Y-72660331D01*
X141326835Y-72824435D01*
X141612556Y-72706104D01*
X142140979Y-72280460D01*
X142221981Y-72132192D01*
X142296786Y-72244147D01*
X142778555Y-72566054D01*
X143346840Y-72679093D01*
X143915125Y-72566054D01*
X144396894Y-72244147D01*
X144718801Y-71762378D01*
X144831840Y-71194093D01*
X144831840Y-71135907D01*
X144718801Y-70567622D01*
X144396894Y-70085853D01*
X143915125Y-69763946D01*
X143346840Y-69650907D01*
X142778555Y-69763946D01*
X142296786Y-70085853D01*
X142221981Y-70197808D01*
X142140979Y-70049540D01*
X141612556Y-69623896D01*
X141326835Y-69505565D01*
X141060840Y-69669669D01*
X140552840Y-69669669D01*
X140286845Y-69505565D01*
X140001124Y-69623896D01*
X139622804Y-69928633D01*
X139580930Y-69863559D01*
X139368730Y-69718569D01*
X139116840Y-69667560D01*
X137416840Y-69667560D01*
X137181523Y-69711838D01*
X136965399Y-69850910D01*
X136820409Y-70063110D01*
X136769400Y-70315000D01*
X131432840Y-70315000D01*
X131432840Y-64240840D01*
X131668635Y-64005046D01*
X131891125Y-64005240D01*
X132400355Y-63794831D01*
X132790301Y-63405564D01*
X133001599Y-62896702D01*
X133002080Y-62345715D01*
X132791671Y-61836485D01*
X132402404Y-61446539D01*
X131893542Y-61235241D01*
X131685580Y-61235059D01*
X131432840Y-60982320D01*
X131432840Y-59520000D01*
X136769400Y-59520000D01*
X136769400Y-61220000D01*
X136813678Y-61455317D01*
X136952750Y-61671441D01*
X137164950Y-61816431D01*
X137416840Y-61867440D01*
X139116840Y-61867440D01*
X139352157Y-61823162D01*
X139568281Y-61684090D01*
X139621890Y-61605631D01*
X140001124Y-61911104D01*
X140286845Y-62029435D01*
X140552840Y-61865331D01*
X140552840Y-60624000D01*
X140532840Y-60624000D01*
X140532840Y-60116000D01*
X140552840Y-60116000D01*
X140552840Y-58874669D01*
X141060840Y-58874669D01*
X141060840Y-60116000D01*
X141080840Y-60116000D01*
X141080840Y-60624000D01*
X141060840Y-60624000D01*
X141060840Y-61865331D01*
X141326835Y-62029435D01*
X141612556Y-61911104D01*
X142140979Y-61485460D01*
X142221981Y-61337192D01*
X142296786Y-61449147D01*
X142778555Y-61771054D01*
X143346840Y-61884093D01*
X143915125Y-61771054D01*
X144396894Y-61449147D01*
X144718801Y-60967378D01*
X144831840Y-60399093D01*
X144831840Y-60340907D01*
X144718801Y-59772622D01*
X144396894Y-59290853D01*
X143915125Y-58968946D01*
X143346840Y-58855907D01*
X142778555Y-58968946D01*
X142296786Y-59290853D01*
X142221981Y-59402808D01*
X142140979Y-59254540D01*
X141612556Y-58828896D01*
X141326835Y-58710565D01*
X141060840Y-58874669D01*
X140552840Y-58874669D01*
X140286845Y-58710565D01*
X140001124Y-58828896D01*
X139622804Y-59133633D01*
X139580930Y-59068559D01*
X139368730Y-58923569D01*
X139116840Y-58872560D01*
X137416840Y-58872560D01*
X137181523Y-58916838D01*
X136965399Y-59055910D01*
X136820409Y-59268110D01*
X136769400Y-59520000D01*
X131432840Y-59520000D01*
X131432840Y-52340840D01*
X131668635Y-52105046D01*
X131891125Y-52105240D01*
X132400355Y-51894831D01*
X132790301Y-51505564D01*
X133001599Y-50996702D01*
X133002080Y-50445715D01*
X132791671Y-49936485D01*
X132402404Y-49546539D01*
X131893542Y-49335241D01*
X131668725Y-49335045D01*
X131432840Y-49099160D01*
X131432840Y-48725000D01*
X136769400Y-48725000D01*
X136769400Y-50425000D01*
X136813678Y-50660317D01*
X136952750Y-50876441D01*
X137164950Y-51021431D01*
X137416840Y-51072440D01*
X139116840Y-51072440D01*
X139352157Y-51028162D01*
X139568281Y-50889090D01*
X139621890Y-50810631D01*
X140001124Y-51116104D01*
X140286845Y-51234435D01*
X140552840Y-51070331D01*
X140552840Y-49829000D01*
X140532840Y-49829000D01*
X140532840Y-49321000D01*
X140552840Y-49321000D01*
X140552840Y-48079669D01*
X141060840Y-48079669D01*
X141060840Y-49321000D01*
X141080840Y-49321000D01*
X141080840Y-49829000D01*
X141060840Y-49829000D01*
X141060840Y-51070331D01*
X141326835Y-51234435D01*
X141612556Y-51116104D01*
X142140979Y-50690460D01*
X142221981Y-50542192D01*
X142296786Y-50654147D01*
X142778555Y-50976054D01*
X143346840Y-51089093D01*
X143915125Y-50976054D01*
X144396894Y-50654147D01*
X144718801Y-50172378D01*
X144831840Y-49604093D01*
X144831840Y-49545907D01*
X144718801Y-48977622D01*
X144396894Y-48495853D01*
X143915125Y-48173946D01*
X143346840Y-48060907D01*
X142778555Y-48173946D01*
X142296786Y-48495853D01*
X142221981Y-48607808D01*
X142140979Y-48459540D01*
X141612556Y-48033896D01*
X141326835Y-47915565D01*
X141060840Y-48079669D01*
X140552840Y-48079669D01*
X140286845Y-47915565D01*
X140001124Y-48033896D01*
X139622804Y-48338633D01*
X139580930Y-48273559D01*
X139368730Y-48128569D01*
X139116840Y-48077560D01*
X137416840Y-48077560D01*
X137181523Y-48121838D01*
X136965399Y-48260910D01*
X136820409Y-48473110D01*
X136769400Y-48725000D01*
X131432840Y-48725000D01*
X131432840Y-41440840D01*
X131668635Y-41205046D01*
X131891125Y-41205240D01*
X132400355Y-40994831D01*
X132790301Y-40605564D01*
X133001599Y-40096702D01*
X133002080Y-39545715D01*
X132791671Y-39036485D01*
X132402404Y-38646539D01*
X131893542Y-38435241D01*
X131342555Y-38434760D01*
X130833325Y-38645169D01*
X130443379Y-39034436D01*
X130232081Y-39543298D01*
X130231885Y-39768115D01*
X129698420Y-40301580D01*
X129478178Y-40631193D01*
X129478178Y-40631194D01*
X129400840Y-41020000D01*
X129400840Y-49520000D01*
X129462304Y-49829000D01*
X129478178Y-49908807D01*
X129698420Y-50238420D01*
X130180000Y-50720000D01*
X129698420Y-51201580D01*
X129478178Y-51531193D01*
X129478178Y-51531194D01*
X129400840Y-51920000D01*
X129400840Y-61403160D01*
X129445773Y-61629054D01*
X129478178Y-61791967D01*
X129698420Y-62121580D01*
X130188420Y-62611580D01*
X129698420Y-63101580D01*
X129478178Y-63431193D01*
X129478178Y-63431194D01*
X129400840Y-63820000D01*
X129400840Y-71203160D01*
X129424990Y-71324569D01*
X129478178Y-71591967D01*
X129698420Y-71921580D01*
X130188420Y-72411580D01*
X129698420Y-72901580D01*
X129478178Y-73231193D01*
X129478178Y-73231194D01*
X129400840Y-73620000D01*
X129400840Y-82320000D01*
X129461474Y-82624831D01*
X129478178Y-82708807D01*
X129698420Y-83038420D01*
X129971580Y-83311580D01*
X129691580Y-83591580D01*
X129471338Y-83921193D01*
X129471338Y-83921194D01*
X129394000Y-84310000D01*
X122158924Y-84310000D01*
X122019460Y-84136861D01*
X121871192Y-84055859D01*
X121983147Y-83981054D01*
X122305054Y-83499285D01*
X122418093Y-82931000D01*
X122305054Y-82362715D01*
X121983147Y-81880946D01*
X121653974Y-81661000D01*
X121983147Y-81441054D01*
X122305054Y-80959285D01*
X122418093Y-80391000D01*
X122305054Y-79822715D01*
X121983147Y-79340946D01*
X121653974Y-79121000D01*
X121983147Y-78901054D01*
X122305054Y-78419285D01*
X122418093Y-77851000D01*
X122305054Y-77282715D01*
X121983147Y-76800946D01*
X121653974Y-76581000D01*
X121983147Y-76361054D01*
X122305054Y-75879285D01*
X122418093Y-75311000D01*
X122305054Y-74742715D01*
X121983147Y-74260946D01*
X121653974Y-74041000D01*
X121983147Y-73821054D01*
X122305054Y-73339285D01*
X122418093Y-72771000D01*
X122305054Y-72202715D01*
X121983147Y-71720946D01*
X121653974Y-71501000D01*
X121983147Y-71281054D01*
X122305054Y-70799285D01*
X122418093Y-70231000D01*
X122305054Y-69662715D01*
X121983147Y-69180946D01*
X121653974Y-68961000D01*
X121983147Y-68741054D01*
X122305054Y-68259285D01*
X122418093Y-67691000D01*
X122305054Y-67122715D01*
X121983147Y-66640946D01*
X121653974Y-66421000D01*
X121983147Y-66201054D01*
X122305054Y-65719285D01*
X122418093Y-65151000D01*
X122305054Y-64582715D01*
X121983147Y-64100946D01*
X121941548Y-64073150D01*
X121989317Y-64064162D01*
X122205441Y-63925090D01*
X122350431Y-63712890D01*
X122401440Y-63461000D01*
X122401440Y-61761000D01*
X122357162Y-61525683D01*
X122218090Y-61309559D01*
X122005890Y-61164569D01*
X121754000Y-61113560D01*
X120054000Y-61113560D01*
X119818683Y-61157838D01*
X119602559Y-61296910D01*
X119457569Y-61509110D01*
X119446159Y-61565454D01*
X119443147Y-61560946D01*
X118961378Y-61239039D01*
X118393093Y-61126000D01*
X118334907Y-61126000D01*
X117766622Y-61239039D01*
X117284853Y-61560946D01*
X116962946Y-62042715D01*
X116849907Y-62611000D01*
X116026000Y-62611000D01*
X116026000Y-37885000D01*
X136805560Y-37885000D01*
X136805560Y-39585000D01*
X136849838Y-39820317D01*
X136988910Y-40036441D01*
X137201110Y-40181431D01*
X137453000Y-40232440D01*
X139153000Y-40232440D01*
X139388317Y-40188162D01*
X139604441Y-40049090D01*
X139658050Y-39970631D01*
X140037284Y-40276104D01*
X140323005Y-40394435D01*
X140589000Y-40230331D01*
X140589000Y-38989000D01*
X140569000Y-38989000D01*
X140569000Y-38481000D01*
X140589000Y-38481000D01*
X140589000Y-37239669D01*
X141097000Y-37239669D01*
X141097000Y-38481000D01*
X141117000Y-38481000D01*
X141117000Y-38989000D01*
X141097000Y-38989000D01*
X141097000Y-40230331D01*
X141362995Y-40394435D01*
X141648716Y-40276104D01*
X142177139Y-39850460D01*
X142258141Y-39702192D01*
X142332946Y-39814147D01*
X142814715Y-40136054D01*
X143383000Y-40249093D01*
X143951285Y-40136054D01*
X144433054Y-39814147D01*
X144754961Y-39332378D01*
X144868000Y-38764093D01*
X144868000Y-38705907D01*
X144754961Y-38137622D01*
X144433054Y-37655853D01*
X143951285Y-37333946D01*
X143383000Y-37220907D01*
X142814715Y-37333946D01*
X142332946Y-37655853D01*
X142258141Y-37767808D01*
X142177139Y-37619540D01*
X141648716Y-37193896D01*
X141362995Y-37075565D01*
X141097000Y-37239669D01*
X140589000Y-37239669D01*
X140323005Y-37075565D01*
X140037284Y-37193896D01*
X139658964Y-37498633D01*
X139617090Y-37433559D01*
X139404890Y-37288569D01*
X139153000Y-37237560D01*
X137453000Y-37237560D01*
X137217683Y-37281838D01*
X137001559Y-37420910D01*
X136856569Y-37633110D01*
X136805560Y-37885000D01*
X116026000Y-37885000D01*
X116026000Y-33059000D01*
X154839560Y-33059000D01*
X154839560Y-34759000D01*
X154883838Y-34994317D01*
X155022910Y-35210441D01*
X155235110Y-35355431D01*
X155487000Y-35406440D01*
X156086560Y-35406440D01*
X156111867Y-35423350D01*
X156402500Y-35481160D01*
X156693133Y-35423350D01*
X156718440Y-35406440D01*
X157187000Y-35406440D01*
X157422317Y-35362162D01*
X157638441Y-35223090D01*
X157783431Y-35010890D01*
X157834440Y-34759000D01*
X157834440Y-33071700D01*
X160897460Y-33071700D01*
X160897460Y-34771700D01*
X160941738Y-35007017D01*
X161080810Y-35223141D01*
X161293010Y-35368131D01*
X161544900Y-35419140D01*
X163244900Y-35419140D01*
X163480217Y-35374862D01*
X163696341Y-35235790D01*
X163841331Y-35023590D01*
X163892340Y-34771700D01*
X163892340Y-33071700D01*
X163848062Y-32836383D01*
X163708990Y-32620259D01*
X163496790Y-32475269D01*
X163244900Y-32424260D01*
X161544900Y-32424260D01*
X161309583Y-32468538D01*
X161093459Y-32607610D01*
X160948469Y-32819810D01*
X160897460Y-33071700D01*
X157834440Y-33071700D01*
X157834440Y-33059000D01*
X157790162Y-32823683D01*
X157651090Y-32607559D01*
X157438890Y-32462569D01*
X157187000Y-32411560D01*
X155487000Y-32411560D01*
X155251683Y-32455838D01*
X155035559Y-32594910D01*
X154890569Y-32807110D01*
X154839560Y-33059000D01*
X116026000Y-33059000D01*
X116026000Y-29055005D01*
X116185815Y-29294185D01*
X117141589Y-29932812D01*
X118269000Y-30157068D01*
X119396411Y-29932812D01*
X120352185Y-29294185D01*
X120636952Y-28868000D01*
X154839560Y-28868000D01*
X154839560Y-30568000D01*
X154883838Y-30803317D01*
X155022910Y-31019441D01*
X155235110Y-31164431D01*
X155487000Y-31215440D01*
X157187000Y-31215440D01*
X157422317Y-31171162D01*
X157638441Y-31032090D01*
X157783431Y-30819890D01*
X157834440Y-30568000D01*
X157834440Y-28868000D01*
X157822492Y-28804500D01*
X160897460Y-28804500D01*
X160897460Y-30504500D01*
X160941738Y-30739817D01*
X161080810Y-30955941D01*
X161293010Y-31100931D01*
X161544900Y-31151940D01*
X163244900Y-31151940D01*
X163480217Y-31107662D01*
X163696341Y-30968590D01*
X163841331Y-30756390D01*
X163892340Y-30504500D01*
X163892340Y-28804500D01*
X163848062Y-28569183D01*
X163708990Y-28353059D01*
X163496790Y-28208069D01*
X163244900Y-28157060D01*
X161544900Y-28157060D01*
X161309583Y-28201338D01*
X161093459Y-28340410D01*
X160948469Y-28552610D01*
X160897460Y-28804500D01*
X157822492Y-28804500D01*
X157790162Y-28632683D01*
X157651090Y-28416559D01*
X157438890Y-28271569D01*
X157187000Y-28220560D01*
X155487000Y-28220560D01*
X155251683Y-28264838D01*
X155035559Y-28403910D01*
X154890569Y-28616110D01*
X154839560Y-28868000D01*
X120636952Y-28868000D01*
X120990812Y-28338411D01*
X121215068Y-27211000D01*
X120990812Y-26083589D01*
X120352185Y-25127815D01*
X120301577Y-25094000D01*
X170733551Y-25094000D01*
X170157188Y-25956589D01*
M02*
